<svg xmlns="http://www.w3.org/2000/svg" enable-background="new 0 0 100 100" viewBox="0 0 100 100"><path d="M74.7,36.9c-3.1-3.3-7.7-5.1-13.3-5.1c-3.4,0-6.7,1.3-9.5,3.7c0.9-2.5,2.4-5.7,5.1-7.6c1.4-1,2.1-2.7,2-4.4c-0.2-1.7-1.2-3.1-2.7-3.8l-0.3-0.1c-0.6-0.2-1.2-0.4-1.8-0.4c-1.7,0-3.3,0.9-4.2,2.4c-0.6,1.1-1.3,2.6-1.8,4.3c-0.6-1.4-1.4-2.6-2.5-3.6c-3.2-3.2-8-4.4-13.5-3.3c-0.4,0.1-0.7,0.4-0.8,0.8c-1,5-0.1,9.3,2.4,12.5c-3.5,0.7-6.4,2.3-8.5,4.6c-3.4,3.6-4.9,8.9-4.4,15.6c0.9,13.6,9.2,28.8,18.9,28.8c2.8,0,5.4-0.8,7.9-2.5c1.4-1,3.2-1,4.6,0c2.4,1.7,5.1,2.5,7.9,2.5c9.7,0,18-15.2,18.9-28.8v0C79.6,45.8,78.1,40.6,74.7,36.9z M77.1,52.4L77.1,52.4c-0.8,12.2-8.5,26.9-16.9,26.9c-2.4,0-4.7-0.7-6.8-2.2c-1-0.7-2.2-1.1-3.4-1.1c-1.2,0-2.4,0.4-3.4,1.1c-2.1,1.4-4.4,2.2-6.8,2.2c-8.4,0-16.1-14.7-16.9-26.9c-0.4-6.2,0.9-10.9,3.9-14.1c2.7-2.9,6.8-4.4,11.8-4.4c3.9,0,7.6,2,10.6,5.6c0.4,0.5,1.2,0.5,1.5,0c3-3.6,6.8-5.6,10.7-5.6c5,0,9.1,1.5,11.8,4.4C76.2,41.5,77.5,46.2,77.1,52.4z"/><path d="M26.8 51.1c-.6 0-1 .5-.9 1.1.1.8.1 1.6.3 2.6.1.5.5.9 1 .9 0 0 .1 0 .1 0 .5-.1.9-.6.9-1.1-.1-1-.2-1.8-.3-2.5C27.8 51.5 27.3 51.1 26.8 51.1zM38.8 36.9c0 0-.1 0-.2 0-2.9 0-6.9.6-9.6 3.5-1.4 1.5-2.3 3.5-2.8 5.9-.1.5.3 1.1.8 1.2.1 0 .1 0 .2 0 .5 0 .9-.3 1-.8.4-2.1 1.2-3.7 2.3-4.9 2.2-2.4 5.7-2.8 8.1-2.9 0 0 .1 0 .2 0 .5 0 1-.4 1-1C39.7 37.4 39.3 36.9 38.8 36.9z"/></svg>