<svg xmlns="http://www.w3.org/2000/svg" enable-background="new 0 0 100 100" viewBox="0 0 100 100"><path d="M65.3,17.5H37.4c0,0,0,0,0,0h-6.5c-5,0-9.1,4.1-9.1,9.1v46.8c0,5,4.1,9.1,9.1,9.1h6.5c0,0,0,0,0,0h27.9c7.1,0,12.9-5.8,12.9-12.9V30.4C78.2,23.3,72.4,17.5,65.3,17.5z M30.2,74.7c-1.5,0-2.7-1.2-2.7-2.7c0-1.5,1.2-2.7,2.7-2.7s2.7,1.2,2.7,2.7C32.9,73.5,31.7,74.7,30.2,74.7z M28,62V38c0-1.2,1-2.2,2.2-2.2c0.6,0,1.2,0.2,1.5,0.6c0.4,0.4,0.6,0.9,0.6,1.5v24c0,1.2-1,2.2-2.2,2.2c-0.6,0-1.1-0.2-1.5-0.6C28.3,63.1,28,62.6,28,62z M30.2,30.7c-1.5,0-2.7-1.2-2.7-2.7c0-1.5,1.2-2.7,2.7-2.7s2.7,1.2,2.7,2.7C32.9,29.5,31.7,30.7,30.2,30.7z M76.2,69.6c0,6-4.9,10.9-10.9,10.9H38.4v-61h26.9c6,0,10.9,4.9,10.9,10.9V69.6z"/><path d="M69.4 48.1c-1.7 0-3.1-1.4-3.1-3.1 0-.5-.5-1-1-1H47.7c-.5 0-1 .5-1 1 0 1.7-1.4 3.1-3.1 3.1-.6 0-1 .5-1 1V70c0 .5.4 1 1 1 1.7 0 3.1 1.4 3.1 3.1 0 .5.5 1 1 1h17.6c.5 0 1-.5 1-1 0-1.7 1.4-3.1 3.1-3.1.6 0 1-.5 1-1V49.1C70.4 48.5 69.9 48.1 69.4 48.1zM43.6 26.9h24.7c.6 0 1-.4 1-1s-.4-1-1-1H43.6c-.6 0-1 .4-1 1S43.1 26.9 43.6 26.9zM43.6 32.2h24.7c.6 0 1-.4 1-1s-.4-1-1-1H43.6c-.6 0-1 .4-1 1S43.1 32.2 43.6 32.2zM43.6 37.4h24.7c.6 0 1-.4 1-1s-.4-1-1-1H43.6c-.6 0-1 .4-1 1S43.1 37.4 43.6 37.4z"/></svg>