<svg xmlns="http://www.w3.org/2000/svg" enable-background="new 0 0 100 100" viewBox="0 0 100 100"><path d="M61.1,40c-6.5,0-12.4,3-16.3,7.7c-1.2-2.5-2.6-4.6-4.2-6.2c0.8-0.7,1.3-1.7,1.3-2.9c0-1.3-0.7-2.5-1.7-3.1c0.5-2.3,0.8-4.6,0.8-6.8c0-6.9-3.1-11.1-8.2-11.1c-5.1,0-8.2,4.1-8.2,11.1c0,2.2,0.3,4.5,0.8,6.8c-1,0.7-1.7,1.8-1.7,3.1c0,1.1,0.5,2.2,1.3,2.8c-4.6,4.6-7.5,13.2-7.5,22.4c0,3.7,0.5,7.4,1.4,10.8c1,3.8,4.5,6.5,8.4,6.5h10.8c3.4,0,6.4-2,7.9-5c3.8,3.8,9.1,6.2,14.9,6.2c11.7,0,21.2-9.5,21.2-21.2S72.8,40,61.1,40z M27.6,34.9c-0.1,0-0.1,0-0.2,0c-0.5-2.1-0.7-4.2-0.7-6.2c0-5.8,2.2-9.1,6.2-9.1c4,0,6.2,3.2,6.2,9.1c0,2-0.3,4.1-0.7,6.2c-0.1,0-0.1,0-0.2,0c0,0,0,0,0,0L27.6,34.9C27.6,34.9,27.6,34.9,27.6,34.9L27.6,34.9z M38.3,79.2H27.5c-3,0-5.7-2-6.5-5c-0.9-3.3-1.3-6.7-1.3-10.3c0-9.1,2.9-17.5,7.5-21.6c0.1,0,0.3,0,0.4,0h10.5c0.1,0,0.3,0,0.4,0c1.9,1.7,3.6,4.1,4.9,7.2c-0.3,0.5-0.6,1-0.9,1.5c0,0.1-0.1,0.1-0.1,0.2c-0.3,0.5-0.5,1-0.7,1.5c0,0.1-0.1,0.2-0.1,0.3c-0.2,0.6-0.5,1.2-0.6,1.7c0,0,0,0,0,0.1c-0.2,0.6-0.4,1.3-0.5,1.9c0,0.1,0,0.2-0.1,0.3c-0.1,0.5-0.2,1-0.2,1.6c0,0.2,0,0.3-0.1,0.5c-0.1,0.6-0.1,1.3-0.1,2c0,0.7,0,1.3,0.1,2c0,0.3,0.1,0.5,0.1,0.8c0.1,0.4,0.1,0.8,0.2,1.2c0.1,0.3,0.1,0.6,0.2,0.9c0.1,0.3,0.2,0.6,0.2,1c0.1,0.3,0.2,0.6,0.3,0.9c0.1,0.3,0.2,0.6,0.3,0.9c0.1,0.3,0.2,0.6,0.4,0.9c0.1,0.3,0.3,0.6,0.4,0.9c0.1,0.3,0.3,0.6,0.4,0.9c0.2,0.3,0.4,0.6,0.6,0.9c0.2,0.2,0.3,0.5,0.5,0.7c0.3,0.5,0.7,1,1.1,1.5C43.8,77.3,41.2,79.2,38.3,79.2z M54.6,54.7c-1.7,0-3.2-1.4-3.2-3.1c0-1.8,1.4-3.2,3.2-3.2c1.8,0,3.2,1.4,3.2,3.2C57.7,53.3,56.3,54.7,54.6,54.7z M62.2,61.6c-1.7,0-3.2-1.4-3.2-3.2c0-1.8,1.4-3.2,3.2-3.2c1.7,0,3.2,1.4,3.2,3.2C65.4,60.2,64,61.6,62.2,61.6z M65.4,52.2c-1.7,0-3.2-1.4-3.2-3.1c0-1.8,1.4-3.2,3.2-3.2c1.8,0,3.2,1.4,3.2,3.2C68.6,50.8,67.1,52.2,65.4,52.2z"/></svg>