<svg xmlns="http://www.w3.org/2000/svg" enable-background="new 0 0 100 100" viewBox="0 0 100 100"><path d="M50,36.5c-9.4,0-17,7.6-17,17c0,9.4,7.6,17,17,17c9.4,0,17-7.6,17-17C67,44.2,59.4,36.5,50,36.5z M57.8,54.6h-4.6c-0.4,1.3-1.7,2.3-3.2,2.3c-1.8,0-3.3-1.5-3.3-3.3c0-1.5,1-2.7,2.3-3.2V43c0-0.5,0.5-1,1-1c0.6,0,1,0.5,1,1v7.4c1,0.3,1.8,1.1,2.2,2.2h4.6c0.5,0,1,0.5,1,1C58.8,54.1,58.3,54.6,57.8,54.6z"/><path d="M78.4,22.1c-2.1-1.7-4.7-2.5-7.4-2.2c-2.7,0.3-5.1,1.6-6.8,3.7c-1.7,2.1-1.3,5.3,0.9,7.1l0.8,0.7l-1.7,2.1c-3.2-2.2-6.9-3.7-10.9-4.3V25h2.3c0.9,0,1.7-0.7,1.7-1.7v-3.2c0-0.9-0.7-1.7-1.7-1.7H44.4c-0.9,0-1.7,0.7-1.7,1.7v3.2c0,0.9,0.7,1.7,1.7,1.7h2.3v4.1c-4,0.5-7.7,2-10.9,4.3l-1.7-2.1l0.8-0.7c2.2-1.8,2.6-4.9,0.8-7.1c-1.7-2.1-4.1-3.4-6.8-3.7c-2.7-0.3-5.3,0.5-7.4,2.2c-4.1,3.4-4.8,9.8-1.6,14l0.1,0.1l0.8-0.6l-0.8,0.6c0.8,1,2,1.6,3.3,1.8c0.2,0,0.3,0,0.5,0c1.2,0,2.4-0.4,3.3-1.2l0.8-0.7l2.1,2.6c-3.1,4.1-4.9,9.2-4.9,14.8c0,5.3,1.7,10.3,4.6,14.3l-3.3,5.7c-0.5,0.8-0.7,1.7-0.7,2.6c0,1.9,1,3.6,2.6,4.6c0.8,0.5,1.7,0.7,2.6,0.7c0.5,0,0.9-0.1,1.4-0.2c1.4-0.4,2.5-1.2,3.2-2.5l2.2-3.8c3.6,2,7.7,3.2,12.1,3.2c4.4,0,8.5-1.2,12.1-3.2l2.2,3.8c0.7,1.2,1.8,2.1,3.2,2.5c0.5,0.1,0.9,0.2,1.4,0.2c0.9,0,1.8-0.2,2.6-0.7c1.6-1,2.6-2.7,2.6-4.6c0-0.9-0.2-1.8-0.7-2.6l-3.3-5.7c2.9-4,4.6-9,4.6-14.3c0-5.5-1.8-10.7-4.9-14.8l2.1-2.6l0.8,0.7c0.9,0.8,2.1,1.2,3.3,1.2c0.2,0,0.3,0,0.5,0c1.3-0.1,2.5-0.8,3.3-1.8l0.1-0.1C83.2,31.9,82.5,25.5,78.4,22.1z M50,76.2c-12.5,0-22.7-10.2-22.7-22.7C27.3,41,37.5,30.9,50,30.9c12.5,0,22.7,10.2,22.7,22.7C72.7,66.1,62.5,76.2,50,76.2z"/></svg>