<svg xmlns="http://www.w3.org/2000/svg" enable-background="new 0 0 100 100" viewBox="0 0 100 100"><path d="M74.5,29.7h-6.7v-2.1c1.3-0.3,2.2-1.4,2.2-2.7v-4.4c0-1.5-1.2-2.8-2.8-2.8H32.7c-1.5,0-2.8,1.2-2.8,2.8v4.4c0,1.3,1,2.5,2.2,2.7v2.1h-6.7c-1.8,0-3.2,1.5-3.2,3.2v3.8c0,4.8,3.9,8.7,8.7,8.7h1.3c0.6,7.6,5.9,13.8,13,15.8v5.5h-4.6c-3.5,0-6.4,2.9-6.4,6.4v5.8c0,1.8,1.5,3.3,3.3,3.3h25c1.8,0,3.3-1.5,3.3-3.3v-5.8c0-3.5-2.9-6.4-6.4-6.4h-4.6v-5.5c7.1-2,12.4-8.2,13-15.8h1.3c4.8,0,8.7-3.9,8.7-8.7v-3.8C77.7,31.2,76.3,29.7,74.5,29.7z M24.3,36.7v-3.8c0-0.7,0.6-1.2,1.2-1.2h6.7v11.7h-1.3C27.3,43.4,24.3,40.4,24.3,36.7z M53.4,59.5c-0.4,0.1-0.7,0.1-1.1,0.2c-0.2,0-0.4,0.1-0.6,0.1c-1.1,0.1-2.3,0.1-3.4,0c-0.2,0-0.4-0.1-0.6-0.1c-0.4-0.1-0.7-0.1-1.1-0.2c-7.1-1.6-12.4-7.9-12.4-15.4V30.7v-3h31.6v3v13.3C65.8,51.6,60.5,57.9,53.4,59.5z M75.7,36.7c0,3.7-3,6.7-6.7,6.7h-1.3V31.7h6.7c0.7,0,1.2,0.6,1.2,1.2V36.7z"/><path d="M57.8,36.2l-3.3-0.5l-1.5-3c-0.6-1.1-1.7-1.8-2.9-1.8s-2.4,0.7-2.9,1.8l-1.5,3l-3.3,0.5c-1.2,0.2-2.3,1-2.6,2.2c-0.4,1.2-0.1,2.5,0.8,3.3l2.4,2.4l-0.6,3.3c-0.2,1.2,0.3,2.5,1.3,3.2c0.6,0.4,1.2,0.6,1.9,0.6c0.5,0,1-0.1,1.5-0.4l3-1.6l3,1.6c1.1,0.6,2.4,0.5,3.4-0.3c1-0.7,1.5-2,1.3-3.2l-0.6-3.3l2.4-2.4c0.9-0.9,1.2-2.2,0.8-3.3C60,37.3,59,36.4,57.8,36.2z"/></svg>