<svg xmlns="http://www.w3.org/2000/svg" enable-background="new 0 0 100 100" viewBox="0 0 100 100"><path d="M70.3,46.5c-2.1,0-4.1,0.6-5.8,1.5l-4.7-6.6l2.8-5.4h1.2c0.3,0,0.5-0.1,0.7-0.3l4-4c0.4-0.4,0.4-1,0-1.4s-1-0.4-1.4,0L63.3,34H56c-0.6,0-1,0.4-1,1s0.4,1,1,1h4.4l-2.4,4.7H38.9v-7c0-1.9-1.6-3.5-3.5-3.5h-2.3c-2.1,0-3.8,1.7-3.8,3.8s1.7,3.8,3.8,3.8h0.7c0.6,0,1-0.4,1-1s-0.4-1-1-1h-0.7c-1,0-1.8-0.8-1.8-1.8s0.8-1.8,1.8-1.8h2.3c0.8,0,1.5,0.7,1.5,1.5v7.8l-2.9,5.8c-1.3-0.5-2.8-0.8-4.3-0.8c-6.5,0-11.7,5.3-11.7,11.7c0,6.5,5.3,11.7,11.7,11.7c6.5,0,11.8-5.3,11.8-11.7c0-4.2-2.3-7.9-5.6-10l2.3-4.5l8.6,11.8c-0.4,0.6-0.7,1.4-0.7,2.2c0,1.9,1.3,3.5,3.1,4v1.9h-1.5c-0.6,0-1,0.4-1,1s0.4,1,1,1h5.1c0.6,0,1-0.4,1-1s-0.4-1-1-1h-1.5v-1.9c1.3-0.3,2.4-1.3,2.8-2.5h4.6c0.5,6,5.5,10.7,11.7,10.7c6.5,0,11.8-5.3,11.8-11.7C82,51.7,76.8,46.5,70.3,46.5z M35.6,62.6l-3.4-3.4H37C36.8,60.5,36.3,61.6,35.6,62.6z M23.9,53.7l3.4,3.4h-4.9C22.6,55.9,23.1,54.7,23.9,53.7z M28.7,55.8l-3.4-3.4c1-0.7,2.2-1.2,3.4-1.4V55.8z M27.3,59.2l-3.4,3.4c-0.7-1-1.2-2.2-1.4-3.4H27.3z M28.7,60.6v4.9c-1.3-0.2-2.5-0.7-3.4-1.4L28.7,60.6z M30.7,60.6l3.4,3.4c-1,0.7-2.2,1.2-3.4,1.4V60.6z M30.7,50.9c0.5,0.1,0.9,0.2,1.4,0.3l-1.4,2.7V50.9z M37,57.2h-5.7l2.5-5.1C35.6,53.3,36.7,55.1,37,57.2z M76.1,62.6l-3.4-3.4h4.9C77.4,60.5,76.9,61.6,76.1,62.6z M65.3,52.7l3.2,4.5H63C63.2,55.4,64.1,53.9,65.3,52.7z M77.5,57.2h-4.9l3.4-3.4C76.9,54.7,77.4,55.9,77.5,57.2z M71.3,55.8v-4.9c1.3,0.2,2.5,0.7,3.4,1.4L71.3,55.8z M67.8,59.2l-3.4,3.4c-0.7-1-1.3-2.2-1.4-3.4H67.8z M69.3,60.6v4.9c-1.3-0.2-2.5-0.7-3.4-1.4L69.3,60.6z M71.3,60.6l3.4,3.4c-1,0.7-2.2,1.2-3.4,1.4V60.6z M69.3,50.9v3.9L67,51.6C67.7,51.3,68.5,51,69.3,50.9z M62.8,49.1c-2.4,2-3.9,4.8-4.2,8.1h-4.3c0-0.1,0-0.1,0-0.2c0-0.1,0-0.2-0.1-0.3c0-0.2-0.1-0.3-0.1-0.4c0-0.1-0.1-0.2-0.1-0.3c-0.1-0.1-0.1-0.3-0.2-0.4c0-0.1-0.1-0.2-0.2-0.2c-0.1-0.1-0.2-0.3-0.3-0.4c-0.1-0.1-0.1-0.1-0.2-0.2c0,0-0.1-0.1-0.1-0.1l5.8-11.2L62.8,49.1z M56.9,42.7l-5.7,11c-0.1,0-0.1,0-0.1,0c-0.3-0.1-0.5-0.1-0.8-0.1c-0.3,0-0.5,0-0.8,0.1c0,0-0.1,0-0.1,0c-0.4,0.1-0.8,0.2-1.1,0.4l-8.3-11.4H56.9z"/></svg>