<svg xmlns="http://www.w3.org/2000/svg" enable-background="new 0 0 100 100" viewBox="0 0 100 100"><path d="M56,57.2H34.3c-2.6,0-4.8,2.1-4.8,4.8v7c0,2.6,2.1,4.8,4.8,4.8H56c2.6,0,4.8-2.1,4.8-4.8v-7C60.7,59.3,58.6,57.2,56,57.2z"/><path d="M72.3,44.2c-0.6-3.5-3.2-6.3-6.7-7.1V24.5c0-2.1-1.7-3.8-3.8-3.8h-2.1c-2.1,0-3.8,1.7-3.8,3.8v5.9C55.3,30.1,54.7,30,54,30H52c-0.7,0-1.3,0.2-1.8,0.5v-9.6c0-2.1-1.7-3.8-3.8-3.8h-2.1c-2.1,0-3.8,1.7-3.8,3.8v9.6c-0.5-0.3-1.2-0.5-1.8-0.5h-2.1c-0.7,0-1.3,0.2-1.8,0.5v-5.2c0-2.1-1.7-3.8-3.8-3.8h-2c-2.1,0-3.8,1.7-3.8,3.8v11.9c-1.9,0.3-3.6,1.3-4.9,2.7c-1.6,1.8-2.4,4.3-2.1,6.7l3,25.6c0.7,6.2,6,10.9,12.2,10.9h24c6.2,0,11.5-4.7,12.2-10.9l1-8.2c0.6,0.1,1.2,0.2,1.8,0.2c5.5,0,10-4.5,10-10C82.1,48.7,77.7,44.3,72.3,44.2z M50.2,33.8c0-1,0.8-1.8,1.8-1.8H54c1,0,1.8,0.8,1.8,1.8v9.1c-1.5,1.9-3.5,3.3-5.7,4.2V33.8z M36.5,32h2.1c1,0,1.8,0.8,1.8,1.8v13.4c-2.2-0.8-4.2-2.1-5.7-3.9v-9.5C34.7,32.8,35.5,32,36.5,32z M67.3,71.9c-0.6,5.2-5,9.1-10.2,9.1h-24c-5.2,0-9.6-3.9-10.2-9.1l-3-25.6c-0.2-1.9,0.4-3.8,1.6-5.2c1.3-1.4,3.1-2.2,4.9-2.2h2.3c0.4,0,0.8,0.2,1.1,0.5c0.2,0.2,0.3,0.4,0.4,0.6c0.3,0.7,0.6,1.3,0.9,1.9c0,0.1,0.1,0.2,0.1,0.3c0,0.1,0.1,0.1,0.1,0.2c2.3,3.8,6.1,6.4,10.4,7.3c0.1,0,0.1,0,0.2,0c0.3,0,0.5,0.1,0.8,0.1c0.1,0,0.3,0,0.4,0c0.2,0,0.4,0,0.6,0.1c0.2,0,0.4,0,0.7,0c0.1,0,0.3,0,0.4,0c0.2,0,0.4,0,0.7,0c0.2,0,0.3,0,0.5,0c0.2,0,0.4,0,0.6-0.1c0.2,0,0.3,0,0.5-0.1c0.2,0,0.4-0.1,0.6-0.1c0.2,0,0.4-0.1,0.5-0.1c0.2,0,0.3-0.1,0.5-0.1c0.1,0,0.3-0.1,0.4-0.1c0,0,0,0,0,0c0,0,0,0,0,0c3.6-1,6.7-3.3,8.8-6.4c0,0,0,0,0,0c0.2-0.3,0.4-0.5,0.5-0.8c0.4-0.7,0.7-1.4,1-2.1c0.1-0.3,0.3-0.5,0.5-0.7c0.3-0.2,0.6-0.4,1-0.4h2.3c0.2,0,0.3,0,0.5,0c0.1,0,0.1,0,0.2,0c2.9,0.3,5.3,2.5,5.8,5.4c-4.6,0.9-8.1,4.9-8.1,9.8c0,4.1,2.6,7.7,6.2,9.2L67.3,71.9z M72.1,62.1c-4.4,0-8-3.6-8-8c0-4.1,3.2-7.6,7.2-7.9c0,0,0,0,0,0c0,0,0,0,0,0c0.2,0,0.5,0,0.7,0c4.4,0,8,3.6,8,8S76.5,62.1,72.1,62.1z"/><path d="M75.5,50.8c-0.4-0.4-1-0.4-1.4,0l-1.9,1.9l-1.9-1.9c-0.4-0.4-1-0.4-1.4,0s-0.4,1,0,1.4l1.9,1.9l-1.9,1.9c-0.4,0.4-0.4,1,0,1.4c0.2,0.2,0.5,0.3,0.7,0.3s0.5-0.1,0.7-0.3l1.9-1.9l1.9,1.9c0.2,0.2,0.5,0.3,0.7,0.3s0.5-0.1,0.7-0.3c0.4-0.4,0.4-1,0-1.4l-1.9-1.9l1.9-1.9C75.9,51.8,75.9,51.2,75.5,50.8z"/></svg>