<svg xmlns="http://www.w3.org/2000/svg" enable-background="new 0 0 100 100" viewBox="0 0 100 100"><path d="M62.3,27.8h-0.8v-0.7c0-1.7-1.4-3.1-3.1-3.1h-2.1v-0.7c0-1.7-0.7-3.3-1.9-4.5C53.3,17.7,51.7,17,50,17c-3.5,0-6.3,2.8-6.3,6.3V24h-2.1c-1.7,0-3.1,1.4-3.1,3.1v0.7h-0.8C31.2,27.8,26,33,26,39.5v31.9C26,77.8,31.2,83,37.7,83h24.6C68.8,83,74,77.8,74,71.3V39.5C74,33,68.8,27.8,62.3,27.8z M50,21c1.1,0,1.9,0.9,1.9,1.9s-0.9,1.9-1.9,1.9s-1.9-0.9-1.9-1.9S48.9,21,50,21z M72,71.3c0,5.3-4.3,9.7-9.7,9.7H37.7c-5.3,0-9.7-4.3-9.7-9.7V39.5c0-5.3,4.3-9.7,9.7-9.7h0.8v0.7c0,1.7,1.4,3.1,3.1,3.1h16.8c0.4,0,0.8-0.1,1.2-0.2c0,0,0.1,0,0.1-0.1c1-0.5,1.8-1.5,1.8-2.8v-0.7h0.8c5.3,0,9.7,4.3,9.7,9.7V71.3z"/><path d="M65.3 50H50.6c-.6 0-1 .4-1 1s.4 1 1 1h14.8c.6 0 1-.4 1-1S65.9 50 65.3 50zM50.6 56.7h10c.6 0 1-.4 1-1s-.4-1-1-1h-10c-.6 0-1 .4-1 1S50 56.7 50.6 56.7zM41.8 47.3H37c-2 0-3.6 1.6-3.6 3.6v4.8c0 2 1.6 3.7 3.6 3.7h4.8c2 0 3.6-1.6 3.6-3.7v-4.8C45.5 48.9 43.8 47.3 41.8 47.3zM42 53l-2.6 2.2c-.2.2-.4.2-.7.2 0 0-.1 0-.1 0-.3 0-.5-.2-.7-.4l-1-1.4c-.3-.5-.2-1.1.3-1.4.5-.3 1.1-.2 1.4.3l.3.5 1.8-1.5c.4-.3 1.1-.3 1.4.1C42.5 52 42.4 52.6 42 53zM41.8 63.5H37c-2 0-3.6 1.6-3.6 3.6V72c0 2 1.6 3.6 3.6 3.6h4.8c2 0 3.6-1.6 3.6-3.6v-4.8C45.5 65.2 43.8 63.5 41.8 63.5zM42 69.3l-2.6 2.2c-.2.1-.4.2-.7.2 0 0-.1 0-.1 0-.3 0-.5-.2-.7-.4l-1-1.4c-.3-.5-.2-1.1.3-1.4.5-.3 1.1-.2 1.4.3l.3.5 1.8-1.5c.4-.4 1.1-.3 1.4.1C42.5 68.3 42.4 68.9 42 69.3zM65.3 66.3H50.6c-.6 0-1 .4-1 1s.4 1 1 1h14.8c.6 0 1-.4 1-1S65.9 66.3 65.3 66.3zM60.6 70.9h-10c-.6 0-1 .4-1 1s.4 1 1 1h10c.6 0 1-.4 1-1S61.1 70.9 60.6 70.9zM41.1 44.6h19.1c.9 0 1.7-.7 1.7-1.7v-4.8c0-.9-.7-1.7-1.7-1.7H41.1c-.9 0-1.7.7-1.7 1.7v4.8C39.4 43.9 40.2 44.6 41.1 44.6z"/></svg>