<svg xmlns="http://www.w3.org/2000/svg" enable-background="new 0 0 100 100" viewBox="0 0 100 100"><path d="M42.2,45.6v-1.1c0-1.2,0.9-2.1,2.1-2.1c1.2,0,2.1,0.9,2.1,2.1v1.1c0,2.9,2.3,5.2,5.2,5.2H59c4.3,0,7.9-3.5,7.9-7.9v-8.3c0-4.3-3.5-7.9-7.9-7.9H29.6c-4.3,0-7.9,3.5-7.9,7.9v8.3c0,4.3,3.5,7.9,7.9,7.9H37C39.9,50.7,42.2,48.4,42.2,45.6z M40.2,45.6c0,1.7-1.4,3.2-3.2,3.2h-7.4c-3.2,0-5.9-2.6-5.9-5.9v-8.3c0-3.2,2.6-5.9,5.9-5.9H59c3.2,0,5.9,2.6,5.9,5.9v8.3c0,3.2-2.6,5.9-5.9,5.9h-7.4c-1.7,0-3.2-1.4-3.2-3.2v-1.1c0-2.3-1.8-4.1-4.1-4.1s-4.1,1.8-4.1,4.1V45.6z"/><path d="M53.9 44.3h5.6c1.6 0 2.9-1.3 2.9-2.9v-5.8c0-1.6-1.3-2.9-2.9-2.9h-5.6c-1.6 0-2.9 1.3-2.9 2.9v5.8C51 42.9 52.3 44.3 53.9 44.3zM34.7 32.7H29c-1.6 0-2.9 1.3-2.9 2.9v5.8c0 1.6 1.3 2.9 2.9 2.9h5.6c1.6 0 2.9-1.3 2.9-2.9v-5.8C37.6 34 36.3 32.7 34.7 32.7z"/><path d="M74.4,18c-2.1,0-3.9,1.7-3.9,3.9v41.5c0,6-4.9,10.9-10.9,10.9c-5,0-9.3-3.4-10.5-8.1c1.3-1.2,2.1-2.8,2.1-4.7v-4.3c0-3.5-2.8-6.3-6.3-6.3s-6.3,2.8-6.3,6.3v4.3c0,2.2,1.1,4.1,2.7,5.2C42.9,75.4,50.7,82,59.7,82c10.3,0,18.6-8.4,18.6-18.6V21.9C78.3,19.7,76.6,18,74.4,18z M40.6,57.2c0-2.4,1.9-4.3,4.3-4.3c2.4,0,4.3,1.9,4.3,4.3v4.3c0,2.4-1.9,4.3-4.3,4.3c-2.4,0-4.3-1.9-4.3-4.3V57.2z"/></svg>