<svg xmlns="http://www.w3.org/2000/svg" enable-background="new 0 0 100 100" viewBox="0 0 100 100"><path d="M74.1,30.6c-4.9,0-8.9,4-8.9,8.9v3.9c-4.4-1.7-10.4-2.7-16.8-2.7c-4.9,0-9.6,0.6-13.6,1.6v-2.8c0-4.9-4-8.9-8.9-8.9c-4.9,0-8.9,4-8.9,8.9v20.9c0,4.9,4,8.9,8.9,8.9c4.9,0,8.9-4,8.9-8.9v-2.8c3.9,1,8.7,1.6,13.6,1.6c6.4,0,12.4-1,16.8-2.7v3.9c0,4.9,4,8.9,8.9,8.9c4.9,0,8.9-4,8.9-8.9V39.5C83,34.6,79,30.6,74.1,30.6z M65.2,54.5c-4.2,1.8-10.3,2.8-16.8,2.8c-4.9,0-9.7-0.6-13.6-1.7V44.4c3.9-1.1,8.6-1.7,13.6-1.7c6.5,0,12.6,1,16.8,2.8V54.5z"/></svg>