<svg xmlns="http://www.w3.org/2000/svg" enable-background="new 0 0 100 100" viewBox="0 0 100 100"><path d="M83.1,51.4c0-2.3-1.5-4.2-3.6-4.8V45c0-9.8-7.9-17.7-17.7-17.7H38.2c-9.8,0-17.7,7.9-17.7,17.7v1.7c-2.1,0.6-3.6,2.5-3.6,4.8c0,2.2,1.4,4.1,3.4,4.7V60c0,7,5.7,12.7,12.7,12.7h35.7c6,0,11-4.9,11-11v-5.6C81.6,55.5,83.1,53.6,83.1,51.4z M38.2,29.3h23.5c8.7,0,15.7,7,15.7,15.7v1.5H22.5V45C22.5,36.4,29.6,29.3,38.2,29.3z M68.7,70.7H33c-5.9,0-10.7-4.8-10.7-10.7v-2.6c0.4,0.7,1,1.4,1.6,2c1.2,1,2.9,1.5,4.5,1.1c2-0.6,3.5-2.6,5.6-2.9c2-0.3,3.8,0.9,5.3,2.2c1.5,1.3,3.1,2.7,5.1,2.9c2,0.1,3.8-1.2,5.5-2.3c1.6-1.2,3.6-2.3,5.5-1.9c1.5,0.3,2.7,1.5,4,2.4c1.3,0.9,3.1,1.5,4.4,0.5c0.7-0.5,1-1.3,1.6-1.9c1-0.9,2.5-1.1,3.9-0.8c1.3,0.3,2.6,0.9,3.9,1.2c1.3,0.4,2.8,0.5,4-0.3c0.2-0.1,0.3-0.2,0.4-0.4v2.6C77.7,66.7,73.6,70.7,68.7,70.7z"/><path d="M35.9 35.2c.2.2.4.2.6.2.3 0 .6-.1.8-.4.4-.4.3-1.1-.1-1.4l-1.4-1.2c-.4-.4-1.1-.3-1.4.1-.4.4-.3 1.1.1 1.4L35.9 35.2zM40.2 40c.2.4.5.6.9.6.1 0 .3 0 .4-.1.5-.2.8-.8.6-1.3l-.7-1.7c-.2-.5-.8-.8-1.3-.6-.5.2-.8.8-.6 1.3L40.2 40zM52.6 35.3c.3 0 .6-.1.7-.3l1.2-1.4c.4-.4.3-1-.1-1.4-.4-.4-1-.3-1.4.1l-1.2 1.4c-.4.4-.3 1 .1 1.4C52.1 35.2 52.4 35.3 52.6 35.3zM46.7 40.3c.1.5.5.8 1 .8.1 0 .1 0 .2 0l1.8-.3c.5-.1.9-.6.8-1.1-.1-.5-.6-.9-1.1-.8l-1.8.3C46.9 39.2 46.6 39.7 46.7 40.3zM65.6 41c.3 0 .6-.1.7-.3l1.2-1.4c.4-.4.3-1-.1-1.4-.4-.4-1-.3-1.4.1l-1.2 1.4c-.4.4-.3 1 .1 1.4C65.2 40.9 65.4 41 65.6 41zM59.6 35c.3 0 .6-.1.7-.3l1.2-1.4c.4-.4.3-1-.1-1.4-.4-.4-1-.3-1.4.1l-1.2 1.4c-.4.4-.3 1 .1 1.4C59.2 34.9 59.4 35 59.6 35zM46.1 35.5c.1 0 .1 0 .2 0 .5-.1.9-.6.8-1.1l-.3-1.8c-.1-.5-.6-.9-1.1-.8-.5.1-.9.6-.8 1.1l.3 1.8C45.1 35.2 45.6 35.5 46.1 35.5zM57.3 41.2c.1 0 .1 0 .2 0 .5-.1.9-.6.8-1.1L58 38.2c-.1-.5-.6-.9-1.1-.8-.5.1-.9.6-.8 1.1l.3 1.8C56.4 40.8 56.8 41.2 57.3 41.2z"/></svg>