<svg xmlns="http://www.w3.org/2000/svg" enable-background="new 0 0 100 100" viewBox="0 0 100 100"><path d="M57.2,33.2H36.7c-3,0-5.4,2.4-5.4,5.4v22.8c0,3,2.4,5.4,5.4,5.4h20.4c3,0,5.4-2.4,5.4-5.4V38.6C62.6,35.6,60.2,33.2,57.2,33.2z M56.8,51h-3.1c-0.5,0-0.9-0.3-1-0.8l-0.6-2.1l-3.6,9.8c-0.2,0.4-0.5,0.7-0.9,0.7h-0.1c-0.4,0-0.8-0.3-0.9-0.8l-2.9-12.5l-2.2,4c-0.2,0.3-0.5,0.5-0.9,0.5h-3.5c-0.5,0-1-0.4-1-1c0-0.5,0.5-1,1-1h2.9l3.2-5.7c0.2-0.4,0.6-0.6,1-0.5c0.4,0.1,0.8,0.4,0.8,0.8l2.7,11.8l3.6-9.6c0.1-0.4,0.6-0.7,1-0.6c0.4,0,0.8,0.3,0.9,0.8l1.2,4.5h2.3c0.5,0,1,0.4,1,1C57.8,50.6,57.3,51,56.8,51z"/><path d="M70.6,44h-2v-8c0-4.5-3.2-8.2-7.5-9l-2.4-6.8c-0.6-1.7-2.2-2.8-4-2.8H39.2c-1.8,0-3.4,1.1-4,2.8l-2.4,6.8c-4.2,0.8-7.5,4.5-7.5,9v28.1c0,4.5,3.2,8.2,7.5,9l2.4,6.8c0.6,1.7,2.2,2.8,4,2.8h15.5c1.8,0,3.4-1.1,4-2.8l2.4-6.8c4.2-0.8,7.5-4.5,7.5-9v-12h2c2.2,0,4-1.8,4-4.1C74.6,45.8,72.8,44,70.6,44z M59.4,71.2H34.5c-3.9,0-7.1-3.2-7.1-7.1V35.9c0-3.9,3.2-7.1,7.1-7.1h24.9c3.9,0,7.1,3.2,7.1,7.1v9c0,0,0,0,0,0v6.1c0,0,0,0,0,0v13C66.6,68,63.3,71.2,59.4,71.2z"/></svg>