<svg xmlns="http://www.w3.org/2000/svg" enable-background="new 0 0 100 100" viewBox="0 0 100 100"><path d="M71.7,71.8V25.3c0-4.4-3.6-8-8.1-8H36.4c-4.4,0-8.1,3.6-8.1,8v46.5c0,0,0,0,0,0v2.9c0,4.4,3.6,8.1,8.1,8.1h27.3c4.4,0,8-3.6,8-8.1L71.7,71.8C71.7,71.8,71.7,71.8,71.7,71.8z M52.4,21c0,0.5-0.5,1-1,1h-3.1c-0.5,0-1-0.5-1-1s0.5-1,1-1h3.1C52,20,52.4,20.5,52.4,21z M36.4,19.2h3.6l1.5,3.4c0.6,1.3,1.9,2.2,3.3,2.2h10.6c1.4,0,2.7-0.9,3.3-2.2l1.5-3.4h3.6c3.3,0,6.1,2.7,6.1,6v45.5H30.3V25.3C30.3,22,33,19.2,36.4,19.2z M50,78.9c-1.1,0-2.1-0.9-2.1-2.1c0-1.1,0.9-2.1,2.1-2.1c1.2,0,2.1,0.9,2.1,2.1C52.1,77.9,51.1,78.9,50,78.9z"/><path d="M46.3,61.2c1,1,2.4,1.5,3.7,1.5c1.3,0,2.7-0.5,3.7-1.5l9.8-9.8c1.8-1.8,2.8-4.2,2.8-6.8s-1-5-2.8-6.8C61.7,36,59.3,35,56.8,35s-5,1-6.8,2.8c-0.9-0.9-2-1.6-3.1-2.1c-1.2-0.5-2.4-0.7-3.7-0.7c-2.6,0-5,1-6.8,2.8s-2.8,4.2-2.8,6.8s1,5,2.8,6.8L46.3,61.2z M41.1,45.5h2.4l1.9-3.2c0.2-0.3,0.6-0.5,1-0.5c0.4,0.1,0.7,0.3,0.8,0.7l2.3,7.9l2.7-8.3c0.1-0.4,0.5-0.7,1-0.7c0.4,0,0.8,0.3,1,0.7l1.4,4.1h2.7c0.6,0,1,0.5,1,1c0,0.6-0.4,1-1,1h-3.4c-0.4,0-0.8-0.3-1-0.7l-0.6-1.9l-2.7,8.5c-0.1,0.4-0.5,0.7-1,0.7c0,0,0,0,0,0c-0.4,0-0.8-0.3-0.9-0.7l-2.6-8.9L44.9,47c-0.2,0.3-0.5,0.5-0.8,0.5h-3c-0.6,0-1-0.4-1-1C40.1,45.9,40.5,45.5,41.1,45.5z"/></svg>