<svg xmlns="http://www.w3.org/2000/svg" enable-background="new 0 0 100 100" viewBox="0 0 100 100"><path d="M76.4,37.8c-3.4,0-6.1,2.7-6.1,6.1v2c-2.6-0.9-5.9-1.5-9.4-1.5V25.3c0-4.4-3.6-8-8-8h-4.2c0,0,0,0,0,0H29.8c0,0,0,0,0,0h-4.2c-4.4,0-8,3.6-8,8v46.5c0,0,0,0,0,0v2.9c0,4.4,3.6,8,8,8h27.3c4.4,0,8-3.6,8-8v-2.9c0,0,0,0,0,0V57c3.6-0.1,6.9-0.6,9.4-1.5v2c0,3.4,2.7,6.1,6.1,6.1s6.1-2.7,6.1-6.1V43.9C82.5,40.6,79.8,37.8,76.4,37.8z M25.5,19.2h3.6l1.5,3.4c0.6,1.3,1.9,2.2,3.3,2.2h10.6c1.4,0,2.7-0.8,3.3-2.2l1.5-3.4h3.6c3.3,0,6,2.7,6,6v19.1c-0.1,0-0.1,0-0.2,0c-0.7,0-1.3,0.1-1.9,0.1c-0.2,0-0.3,0-0.5,0c-0.6,0.1-1.3,0.1-1.9,0.2c-0.1,0-0.2,0-0.4,0.1c-0.6,0.1-1.3,0.2-1.8,0.3c-0.1,0-0.2,0-0.2,0.1c-0.2,0-0.3,0.1-0.5,0.1v-1.4c0-3.4-2.7-6.1-6.1-6.1c-3.4,0-6.1,2.7-6.1,6.1v13.5c0,3.4,2.7,6.1,6.1,6.1c3.4,0,6.1-2.7,6.1-6.1v-1.4c0.1,0,0.3,0.1,0.5,0.1c0.1,0,0.2,0.1,0.3,0.1c0.5,0.1,1.1,0.2,1.7,0.3c0.2,0,0.4,0.1,0.6,0.1c0.6,0.1,1.2,0.2,1.8,0.2c0.1,0,0.3,0,0.4,0c0.7,0.1,1.4,0.1,2.1,0.1c0,0,0,0,0.1,0v13.9H19.5V25.3C19.5,22,22.2,19.2,25.5,19.2z M41.8,21c0,0.4-0.3,0.8-0.8,0.8h-3.7c-0.4,0-0.8-0.3-0.8-0.8c0-0.4,0.3-0.8,0.8-0.8H41C41.4,20.2,41.8,20.6,41.8,21z M39.2,78.7c-1.1,0-1.9-0.9-1.9-1.9c0-1.1,0.9-1.9,1.9-1.9c1.1,0,1.9,0.9,1.9,1.9C41.1,77.9,40.2,78.7,39.2,78.7z M70.3,53.3c-2.7,1.1-6.4,1.7-10.5,1.7c0,0,0,0,0,0c-1.5,0-3-0.1-4.5-0.3c-0.1,0-0.2,0-0.3,0c-0.6-0.1-1.2-0.2-1.7-0.3c-0.3-0.1-0.6-0.1-0.9-0.2c-0.3-0.1-0.7-0.1-1-0.2v-6.6c2.4-0.6,5.4-1,8.4-1c4.1,0,7.8,0.6,10.5,1.7V53.3z"/></svg>