<svg xmlns="http://www.w3.org/2000/svg" enable-background="new 0 0 100 100" viewBox="0 0 100 100"><path d="M80.2,19.8c-1.5-1.5-3.4-2.3-5.5-2.3H25.3c0,0,0,0,0,0c-4.3,0-7.8,3.5-7.8,7.8v6c0,3.2,2.6,5.7,5.7,5.7h7.8v38.6c0,3.8,3.1,6.9,6.9,6.9h37.5c3.8,0,6.9-3.1,6.9-6.9V25.2C82.4,23.2,81.6,21.2,80.2,19.8z M80.4,75.6c0,2.7-2.2,4.9-4.9,4.9H38c-2.7,0-4.9-2.2-4.9-4.9V36c0,0,0,0,0,0V25.2c0-0.1,0-0.2,0-0.3c0-0.1,0-0.3,0-0.4c0-0.1,0-0.2-0.1-0.4c0-0.1,0-0.3-0.1-0.4c0-0.1,0-0.2-0.1-0.2c0-0.2-0.1-0.3-0.1-0.5c0,0,0-0.1,0-0.1c-0.4-1.1-1-2.2-1.9-3.1c-0.1-0.1-0.2-0.2-0.3-0.3h44.1c1.5,0,3,0.6,4.1,1.7c1.1,1.1,1.7,2.5,1.7,4.1V75.6z"/><path d="M63.6 28.1c-2.6 0-5 1-6.8 2.8-.9-.9-2-1.6-3.1-2.1-1.1-.5-2.4-.7-3.7-.7-2.6 0-5 1-6.8 2.8-1.8 1.8-2.8 4.2-2.8 6.8s1 5 2.8 6.8l9.8 9.8c1 1 2.4 1.5 3.7 1.5 1.3 0 2.7-.5 3.7-1.5l9.8-9.8c1.8-1.8 2.8-4.2 2.8-6.8s-1-5-2.8-6.8S66.1 28.1 63.6 28.1zM65 41.4h-3.4c-.4 0-.8-.3-.9-.7L60 38.8l-2.7 8.5c-.1.4-.5.7-1 .7h0c-.4 0-.8-.3-1-.7l-2.6-8.9-1.1 1.7c-.2.3-.5.5-.9.5h-3c-.6 0-1-.5-1-1 0-.6.4-1 1-1h2.4l2-3.2c.2-.3.6-.5 1-.5.4.1.7.3.8.7l2.3 7.9 2.7-8.3c.1-.4.5-.7.9-.7h0c.4 0 .8.3 1 .7l1.4 4.1H65c.6 0 1 .4 1 1C66 40.9 65.5 41.4 65 41.4zM72.1 62.7H41.5c-.6 0-1 .4-1 1s.4 1 1 1h30.7c.6 0 1-.4 1-1S72.7 62.7 72.1 62.7zM72.1 70.4H41.5c-.6 0-1 .4-1 1s.4 1 1 1h30.7c.6 0 1-.4 1-1S72.7 70.4 72.1 70.4z"/></svg>