<svg xmlns="http://www.w3.org/2000/svg" enable-background="new 0 0 100 100" viewBox="0 0 100 100"><path d="M65.9,45.1c-0.5-1.1-2.9-5.8-6.7-9.3c0,0.1-0.1,0.3-0.1,0.4c0.2-0.9,0.3-1.8,0.3-2.8c0-8.8-7.1-15.9-15.9-15.9s-15.9,7.1-15.9,15.9c0,8.8,7.1,15.9,15.9,15.9c2.9,0,5.7-0.8,8-2.2c-0.1,0.1-0.2,0.1-0.3,0.2c1.3,2.4,2,4.7,2.1,6.9c-2.8-0.8-9.6-2.2-13.3,2.5c-1.9-1.4-6.8-4.3-11.2-1.4c-1,0.7-1.6,1.8-1.6,3V79c0,1,0.4,1.9,1.1,2.6c0.7,0.6,1.5,1,2.4,1c0.1,0,0.2,0,0.2,0c3.2-0.2,8.8-1.3,11.2-6.3c2.8,0.9,11.5,3,19.5-2.7c2.1-1.5,4.1-3.1,5.7-4.7c1.6-1.6,3-3.2,3.9-4.6C73.7,60.3,74.4,51.7,65.9,45.1z M29.5,33.4c0-7.7,6.3-13.9,13.9-13.9c7.7,0,13.9,6.3,13.9,13.9c0,7.7-6.3,13.9-13.9,13.9C35.8,47.4,29.5,41.1,29.5,33.4z M58.9,37.2c-0.1,0.2-0.1,0.5-0.2,0.7C58.8,37.7,58.9,37.4,58.9,37.2z M58.4,38.9c-0.1,0.2-0.1,0.4-0.2,0.6C58.3,39.3,58.3,39.1,58.4,38.9z M57.5,40.9c0,0.1-0.1,0.2-0.1,0.2C57.4,41.1,57.5,41,57.5,40.9z M53,46.1c-0.2,0.1-0.3,0.2-0.5,0.3C52.7,46.4,52.9,46.3,53,46.1z M53.9,45.4c0.2-0.1,0.3-0.3,0.5-0.4C54.2,45.2,54.1,45.3,53.9,45.4z M56.6,42.5c-0.1,0.2-0.2,0.3-0.3,0.5C56.4,42.8,56.5,42.6,56.6,42.5z M55.5,43.8c-0.1,0.2-0.3,0.3-0.4,0.5C55.3,44.1,55.4,44,55.5,43.8z"/><path d="M43.5,27.7c-3.1,0-5.7,2.5-5.7,5.7c0,3.1,2.5,5.7,5.7,5.7c3.1,0,5.7-2.5,5.7-5.7C49.1,30.3,46.6,27.7,43.5,27.7z"/></svg>