<svg xmlns="http://www.w3.org/2000/svg" enable-background="new 0 0 100 100" viewBox="0 0 100 100"><path d="M75.1,58.8c-0.6-4.7-2.6-9.1-5.5-12.6l1.5-11.3v0c0.5-4.4-0.8-8.8-3.8-12s-7.1-5.2-11.5-5.2H44.2c-4.4,0-8.6,1.9-11.5,5.2c-2.9,3.3-4.3,7.7-3.8,12l1.5,11.2c-3.6,4.5-5.7,10.1-5.7,15.9c0,5.4,1.7,10.6,4.9,15c2.5,3.3,6.5,5.3,10.7,5.3h19.3c4.2,0,8.2-2,10.6-5.2C74.2,71.9,75.9,65.4,75.1,58.8z M40.1,29.1c1.6-1.8,3.8-2.8,6.1-2.8h7.5c2.4,0,4.6,1,6.1,2.8c1.6,1.8,2.3,4.1,2,6.4l-0.6,4c-2.6-1.3-5.5-2.2-8.5-2.5c-5-0.6-9.9,0.3-14.2,2.5l-0.5-3.9C37.8,33.2,38.6,30.8,40.1,29.1z M68.7,75.9c-2.1,2.8-5.4,4.4-9,4.4H40.3c-3.6,0-7-1.7-9.1-4.5c-3-4-4.5-8.8-4.5-13.8c0-5.6,2.1-11.1,5.7-15.3c0.3-0.4,0.6-0.7,1-1.1c0.1-0.1,0.2-0.2,0.3-0.3c0.3-0.3,0.7-0.6,1-0.9c0.3-0.3,0.6-0.5,1-0.8c0.2-0.2,0.5-0.4,0.7-0.5c0.3-0.2,0.6-0.4,0.8-0.6c0.3-0.2,0.6-0.4,1-0.6c3.5-2.1,7.6-3.2,11.8-3.2c0.9,0,1.8,0,2.7,0.1c3.3,0.4,6.3,1.4,9.1,3c0.2,0.1,0.4,0.2,0.5,0.3c2,1.2,3.8,2.8,5.4,4.6c0,0,0,0,0,0c2.9,3.4,4.9,7.6,5.5,12.2C73.8,65.1,72.3,71.1,68.7,75.9z"/><path d="M50,46c-8,0-14.4,6.5-14.4,14.4c0,8,6.5,14.4,14.4,14.4c7.9,0,14.4-6.5,14.4-14.4C64.4,52.5,57.9,46,50,46z"/></svg>