<svg xmlns="http://www.w3.org/2000/svg" enable-background="new 0 0 100 100" viewBox="0 0 100 100"><path d="M60.4,42.3c1.3-0.1,2.7-0.4,4.1-0.8c5.6-1.7,9.4-5.3,8.6-8c-0.6-1.9-3.2-2.9-6.7-2.7c0,0,0,0,0,0c1.9-3.1,2.4-6.1,1-7.5c-1.4-1.4-4.3-1-7.3,0.8c-0.8,0.5-1.6,1.1-2.4,1.8c0.8-0.7,1.6-1.3,2.4-1.8c0.2-3.5-0.8-6.2-2.7-6.7c-2.7-0.8-6.3,3-8,8.6c-0.4,1.5-0.7,2.9-0.8,4.3c-4.2-0.5-8.7,1.8-13.7,6.8C25.4,46.4,15.5,64.2,21,69.6c1.1,1.1,2.6,1.6,4.5,1.6c7.6,0,20.5-7.8,28-15.3C58.5,50.9,60.8,46.5,60.4,42.3z M45.5,60.1L43,57.5c-0.4-0.4-1-0.4-1.4,0s-0.4,1,0,1.4l2.3,2.3c-3.5,2.5-7.3,4.6-10.6,6l-2.8-2.8c-0.4-0.4-1-0.4-1.4,0c-0.4,0.4-0.4,1,0,1.4l2.1,2.1c-4,1.4-7.3,1.7-8.8,0.2c-1.4-1.4-1.3-4.4-0.1-8.1l1.9,1.9c0.2,0.2,0.5,0.3,0.7,0.3s0.5-0.1,0.7-0.3c0.4-0.4,0.4-1,0-1.4L23.1,58c0.7-1.8,1.7-3.8,2.8-5.7l2.1,2.1c0.2,0.2,0.5,0.3,0.7,0.3s0.5-0.1,0.7-0.3c0.4-0.4,0.4-1,0-1.4l-2.5-2.5c2.2-3.7,4.9-7.4,7.8-10.5l2.4,2.4c0.2,0.2,0.5,0.3,0.7,0.3s0.5-0.1,0.7-0.3c0.4-0.4,0.4-1,0-1.4l-2.4-2.4c0,0,0.1-0.1,0.1-0.1c4.7-4.7,8.3-6.3,11.3-6.3c3,0,5.3,1.7,7.3,3.7c3.3,3.3,5.8,7.6,0.9,14.5l-2.1-2.1c-0.4-0.4-1-0.4-1.4,0s-0.4,1,0,1.4l2.3,2.3c-0.7,0.8-1.5,1.7-2.4,2.6C50.2,56.4,47.9,58.3,45.5,60.1z"/><path d="M36 52.4c.3 0 .5-.1.7-.3.4-.4.4-1 0-1.4l-2.9-2.9c-.4-.4-1-.4-1.4 0s-.4 1 0 1.4l2.9 2.9C35.5 52.3 35.7 52.4 36 52.4zM35.1 58.3c-.4-.4-1-.4-1.4 0s-.4 1 0 1.4l2.9 2.9c.2.2.5.3.7.3s.5-.1.7-.3c.4-.4.4-1 0-1.4L35.1 58.3zM45.6 49.1c-.4-.4-1-.4-1.4 0s-.4 1 0 1.4l2.9 2.9c.2.2.5.3.7.3s.5-.1.7-.3c.4-.4.4-1 0-1.4L45.6 49.1zM45.9 37.4c-.4-.4-1-.4-1.4 0s-.4 1 0 1.4l2.9 2.9c.2.2.5.3.7.3s.5-.1.7-.3c.4-.4.4-1 0-1.4L45.9 37.4zM80.5 58.4c-.4-1.2-2.1-1.8-4.3-1.7 0 0 0 0 0 0 1.2-2 1.5-3.9.6-4.8-.9-.9-2.7-.6-4.7.5-.5.3-1 .7-1.5 1.1.5-.4 1-.8 1.5-1.1.1-2.2-.5-3.9-1.7-4.3-1.7-.5-4 1.9-5.1 5.5-.2.8-.4 1.6-.5 2.3-2.8-.3-5.7 1.2-9 4.5-6 6-12.5 17.5-8.7 21.2.8.8 1.9 1.1 3.2 1.1 5.1 0 13.3-5.1 18.1-9.8 3.3-3.3 4.7-6.2 4.5-8.9.7-.1 1.5-.2 2.2-.5C78.6 62.4 81 60.2 80.5 58.4zM69.4 68.5l-1-1c-.4-.4-1-.4-1.4 0s-.4 1 0 1.4l1.2 1.2c-.4.4-.8.9-1.3 1.4-1.2 1.2-2.5 2.3-3.9 3.4l-1.4-1.4c-.4-.4-1-.4-1.4 0s-.4 1 0 1.4l1.2 1.2c-5.4 3.7-11.2 5.8-12.8 4.2-.7-.7-.7-2.2-.1-4.2l.8.8c.2.2.5.3.7.3s.5-.1.7-.3c.4-.4.4-1 0-1.4l-1.5-1.5c.4-.9.9-1.9 1.4-3l1 1c.2.2.5.3.7.3s.5-.1.7-.3c.4-.4.4-1 0-1.4l-1.4-1.4c1.3-2.1 2.8-4.2 4.5-6.1l1.3 1.3c.2.2.5.3.7.3s.5-.1.7-.3c.4-.4.4-1 0-1.4l-1.3-1.3c2.8-2.7 4.9-3.7 6.7-3.7 1.8 0 3.2 1 4.4 2.2C70.7 62.2 72 64.6 69.4 68.5z"/><path d="M56.9 70.8c.3 0 .5-.1.7-.3.4-.4.4-1 0-1.4l-1.8-1.8c-.4-.4-1-.4-1.4 0-.4.4-.4 1 0 1.4l1.8 1.8C56.4 70.7 56.7 70.8 56.9 70.8zM56.6 73.9c-.4-.4-1-.4-1.4 0s-.4 1 0 1.4l1.8 1.8c.2.2.5.3.7.3s.5-.1.7-.3c.4-.4.4-1 0-1.4L56.6 73.9zM63.3 68.1c-.4-.4-1-.4-1.4 0-.4.4-.4 1 0 1.4l1.8 1.8c.2.2.5.3.7.3s.5-.1.7-.3c.4-.4.4-1 0-1.4L63.3 68.1zM63.5 60.6c-.4-.4-1-.4-1.4 0s-.4 1 0 1.4l1.8 1.8c.2.2.5.3.7.3s.5-.1.7-.3c.4-.4.4-1 0-1.4L63.5 60.6z"/></svg>