<svg xmlns="http://www.w3.org/2000/svg" enable-background="new 0 0 100 100" viewBox="0 0 100 100"><path d="M82.9,26c-0.2-4.8-4-8.7-8.9-8.9c-3.1-0.2-6.3-0.1-9.5,0c0.1,0,0.1,0,0.2,0c-0.1,0-0.1,0-0.2,0c-5.2,0.3-10.1,1-14.5,2.2c0.6-0.1,1.1-0.3,1.7-0.4c-0.6,0.1-1.1,0.3-1.7,0.4c-8.2,2.2-14.9,5.8-19.8,10.7c-4.9,4.9-8.5,11.5-10.7,19.7c0,0,0,0,0,0c-1.2,4.4-1.9,9.3-2.2,14.5c0,0.1,0,0.2,0,0.2c0-0.1,0-0.1,0-0.2C17,67.6,17,70.8,17.1,74c0.2,4.8,4,8.7,8.9,8.9c1.5,0.1,2.9,0.1,4.4,0.1c1.8,0,3.5,0,5.2-0.1c0,0,0.1,0,0.1,0h0c0,0-0.1,0-0.1,0c-0.1,0-0.2,0-0.3,0c0.1,0,0.2,0,0.3,0c0.1,0,0.1,0,0.1,0c5.2-0.3,10.1-1,14.5-2.2c0.4-0.1,0.7-0.4,0.7-0.8c0-0.4-0.1-0.8-0.5-1c0,0,0,0,0,0c0,0,0,0,0,0c0.3,0.2,0.5,0.6,0.5,1c-0.1,0.4-0.4,0.7-0.7,0.8c4.1-1.1,7.8-2.5,11.1-4.3c3.3-1.8,6.2-3.9,8.7-6.4c4.9-4.9,8.5-11.5,10.7-19.7c-0.1,0.4-0.4,0.7-0.8,0.7h-0.1c-0.2,0-0.3,0-0.5-0.1c0.1,0.1,0.3,0.1,0.5,0.1h0.1c0.4-0.1,0.7-0.3,0.8-0.7c1.2-4.4,1.9-9.3,2.2-14.5c0-0.1,0-0.2,0-0.2c0,0.1,0,0.1,0,0.2C83,32.4,83,29.2,82.9,26z M65.1,17.4C65.1,17.4,65.2,17.4,65.1,17.4C65.2,17.4,65.1,17.4,65.1,17.4c-0.1-0.1-0.2-0.1-0.3-0.2C64.9,17.2,65,17.3,65.1,17.4z M21.2,49.5C21.2,49.5,21.2,49.5,21.2,49.5C21.2,49.5,21.2,49.5,21.2,49.5c-0.1-0.2-0.3-0.3-0.4-0.4C21,49.2,21.1,49.4,21.2,49.5z M17.4,64.9c-0.1-0.1-0.1-0.2-0.1-0.3C17.2,64.8,17.3,64.9,17.4,64.9z M26.1,80.9c-3.8-0.2-6.8-3.2-7-7c-0.1-2.3-0.1-4.5,0-6.8c-0.6-0.7-1.1-1.4-1.6-2.1c2.6,3.4,5.5,6.7,8.4,9.7c2.2,2.2,4.5,4.3,6.9,6.3C30.6,81,28.3,81,26.1,80.9z M68.5,68.5c-4.6,4.6-10.8,8-18.5,10.1C38.4,71.7,28.8,62,21.4,49.9c2.1-7.6,5.5-13.8,10-18.4c4.6-4.6,10.8-8,18.5-10.1c-0.1-0.1-0.2-0.1-0.3-0.2c11.8,6.9,21.5,16.6,28.9,28.9c-1,3.7-2.4,7.1-4,10.2C72.9,63.4,70.9,66.2,68.5,68.5z M82.6,35c-4.5-6-9.7-11.4-15.4-16c0,0,0,0,0,0c0.8,0,1.6,0,2.5,0c1.4,0,2.8,0,4.2,0.1c3.8,0.2,6.8,3.2,7,7c0.1,2.3,0.1,4.5,0,6.8C81.5,33.6,82.1,34.3,82.6,35c0.1,0.1,0.1,0.2,0.2,0.3C82.8,35.2,82.7,35.1,82.6,35z"/><path d="M57,41.6l-1.9,1.9l-1.3-1.3c-0.4-0.4-1-0.4-1.4,0s-0.4,1,0,1.4l1.3,1.3l-2,2l-1.3-1.3c-0.4-0.4-1-0.4-1.4,0s-0.4,1,0,1.4l1.3,1.3l-2,2L46.9,49c-0.4-0.4-1-0.4-1.4,0s-0.4,1,0,1.4l1.3,1.3l-2,2l-1.4-1.4c-0.4-0.4-1-0.4-1.4,0s-0.4,1,0,1.4l1.4,1.4L41.6,57c-0.4,0.4-0.4,1,0,1.4c0.2,0.2,0.5,0.3,0.7,0.3s0.5-0.1,0.7-0.3l1.9-1.9l1.4,1.4c0.2,0.2,0.5,0.3,0.7,0.3s0.5-0.1,0.7-0.3c0.4-0.4,0.4-1,0-1.4l-1.4-1.4l2-2l1.4,1.3c0.2,0.2,0.5,0.3,0.7,0.3s0.5-0.1,0.7-0.3c0.4-0.4,0.4-1,0-1.4l-1.4-1.3l2-2l1.3,1.3c0.2,0.2,0.5,0.3,0.7,0.3s0.5-0.1,0.7-0.3c0.4-0.4,0.4-1,0-1.4l-1.3-1.3l2-2l1.3,1.4c0.2,0.2,0.5,0.3,0.7,0.3s0.5-0.1,0.7-0.3c0.4-0.4,0.4-1,0-1.4l-1.3-1.4l1.9-1.9c0.4-0.4,0.4-1,0-1.4S57.4,41.2,57,41.6z"/></svg>