<svg xmlns="http://www.w3.org/2000/svg" enable-background="new 0 0 100 100" viewBox="0 0 100 100"><path d="M82.9,45.6c0-2.6-2.1-4.7-4.7-4.7h-6.6c1.8-2.2,3.3-4.3,4.1-5.6c3.3-5.7,1.7-12.8-3.5-15.8c-5.2-2.9-12.1-0.7-15.3,5.1c-1.7,2.9-4.2,10-5.6,16.4H21.9c-2.6,0-4.8,2.1-4.8,4.7c0,2.6,2.1,4.7,4.7,4.7c0.5,10.3,6.7,19.6,16,24.1V77c0,2.7,2.2,4.9,4.9,4.9h14.8c2.7,0,4.9-2.2,4.9-4.9v-2.5c9.3-4.5,15.4-13.8,15.9-24.1C80.8,50.3,82.9,48.2,82.9,45.6z M58.6,25.5c2.7-4.8,8.4-6.7,12.6-4.3c4.2,2.4,5.5,8.3,2.7,13c0,0,0,0,0,0c-0.9,1.5-2.8,4-5,6.6H53.3C54.6,34.8,57,28.2,58.6,25.5z M61.1,72.8H39C30.2,68.7,24.3,60,23.8,50.4h52.5C75.7,60,69.8,68.7,61.1,72.8z"/></svg>