<svg xmlns="http://www.w3.org/2000/svg" enable-background="new 0 0 100 100" viewBox="0 0 100 100"><path d="M82.8,55.7c-0.3-1.3-1.2-2.3-2.3-2.9l-4.1-2.1c0,0,0,0,0,0l-47-23.4c0,0,0,0,0,0l-4.1-2.1c-1.2-0.6-2.5-0.6-3.7-0.1c-1.2,0.5-2.1,1.4-2.5,2.7c-5.9,16.9,1.7,35.6,17.7,43.6c5.1,2.5,10.5,3.8,15.9,3.8c11.6,0,22.9-5.7,29.7-15.8C83,58.3,83.2,57,82.8,55.7z M41.3,62.3c-12-6-17.2-20.5-11.9-32.7l45.1,22.5C68,63.7,53.3,68.2,41.3,62.3z"/><path d="M36.1 43c1.3.6 2.8.1 3.5-1.2.6-1.3.1-2.8-1.2-3.5-1.3-.6-2.8-.1-3.5 1.2C34.2 40.9 34.8 42.4 36.1 43zM47.9 49c1.3.6 2.8.1 3.5-1.2.6-1.3.1-2.8-1.2-3.5-1.3-.6-2.8-.1-3.5 1.2C46.1 46.8 46.7 48.3 47.9 49zM59.8 54.9c1.3.6 2.8.1 3.5-1.2.6-1.3.1-2.8-1.2-3.5-1.3-.6-2.8-.1-3.5 1.2C58 52.7 58.5 54.3 59.8 54.9zM36.7 50.7c-.6 1.3-.1 2.8 1.2 3.5 1.3.6 2.8.1 3.5-1.2.6-1.3.1-2.8-1.2-3.5C38.9 48.9 37.4 49.4 36.7 50.7zM48.6 56.7c-.6 1.3-.1 2.8 1.2 3.5 1.3.6 2.8.1 3.5-1.2.6-1.3.1-2.8-1.2-3.5C50.8 54.9 49.3 55.4 48.6 56.7z"/></svg>