<svg xmlns="http://www.w3.org/2000/svg" enable-background="new 0 0 100 100" viewBox="0 0 100 100"><path d="M79.7,35.1c0-7.1-5.8-12.9-12.9-12.9h-3.6v-2.8c0-0.6-0.4-1-1-1s-1,0.4-1,1v2.8H37.8v-2.8c0-0.6-0.4-1-1-1s-1,0.4-1,1v2.8h-2.6c-7.1,0-12.9,5.8-12.9,12.9v3.4c0,0,0,0,0,0v30.1c0,7.1,5.8,12.9,12.9,12.9h33.5c7.1,0,12.9-5.8,12.9-12.9V38.5c0,0,0,0,0,0V35.1z M61.8,26.7c0.1,0,0.2,0.1,0.3,0.1s0.2,0,0.3-0.1c1.4,0.2,2.5,1.4,2.5,2.8c0,1.6-1.3,2.9-2.8,2.9c-1.6,0-2.9-1.3-2.9-2.9C59.3,28,60.4,26.9,61.8,26.7z M36.5,26.7c0.1,0,0.2,0.1,0.3,0.1c0.1,0,0.2,0,0.4-0.1c1.4,0.2,2.5,1.4,2.5,2.8c0,1.6-1.3,2.9-2.9,2.9c-1.6,0-2.9-1.3-2.9-2.9C34,28,35.1,26.9,36.5,26.7z M77.7,68.6c0,6-4.9,10.9-10.9,10.9H33.2c-6,0-10.9-4.9-10.9-10.9V39.5h55.3V68.6z"/><path d="M44.6,74c1.3,0,2.5-0.4,3.6-1.1c1.1-0.7,2.5-0.7,3.6,0c1.1,0.7,2.3,1.1,3.6,1.1c4.4,0,8.5-7.6,8.9-14.2c0.5-7-3.4-9.8-8.3-9.8c-1.3,0-2.6,0.4-3.7,1.2c0.4-1,1.1-2,1.9-2.6c0.8-0.6,1.2-1.5,1.1-2.5c-0.1-1-0.7-1.8-1.6-2.1l-0.1-0.1c-0.3-0.1-0.7-0.2-1-0.2c-1,0-1.9,0.5-2.4,1.4c-0.2,0.3-0.4,0.7-0.6,1.2c-0.2-0.3-0.5-0.7-0.8-1c-1.6-1.6-4.1-2.2-6.9-1.7c-0.4,0.1-0.7,0.4-0.7,0.7c-0.4,2.3-0.1,4.3,0.9,5.8c-4,0.6-6.9,3.5-6.5,9.6C36.1,66.4,40.2,74,44.6,74z"/></svg>