<svg xmlns="http://www.w3.org/2000/svg" enable-background="new 0 0 100 100" viewBox="0 0 100 100"><path d="M22.4,27.9c0.4,5.2,5,9.3,10.4,9.3h44c0.6,0,1-0.4,1-1v-3c0-2.2-1.8-4-4-4H32.4c-0.6,0-1.2-0.3-1.6-0.8c-0.4-0.5-0.6-1.1-0.4-1.8c0.2-0.9,1.1-1.7,2.2-1.7h41.2c2.2,0,4-1.8,4-4s-1.8-4-4-4H32.4c-2.7,0-5.2,1-7.1,3c-1.6,1.6-2.6,3.7-2.9,5.9c-0.1,0.1-0.1,0.3-0.1,0.4v0.8c0,0,0,0,0,0.1C22.3,27.4,22.3,27.6,22.4,27.9z M26.7,21.4c1.5-1.5,3.6-2.4,5.7-2.4h41.3c1.1,0,2,0.9,2,2s-0.9,2-2,2H32.5c-2,0-3.8,1.4-4.1,3.3c-0.2,1.2,0.1,2.5,0.9,3.4c0.8,0.9,1.9,1.5,3.1,1.5h41.3c1.1,0,2,0.9,2,2v2h-43c-4.4,0-8-3.3-8.4-7.5c0-0.3,0-0.5,0-0.8c0-0.1,0-0.2,0-0.3C24.4,24.7,25.3,22.8,26.7,21.4z"/><path d="M76.7,37.2h-1v37.5c0,3.5-2.9,6.4-6.4,6.4h-33V37.2h-2h-1.6c-5.4,0-10-4.1-10.4-9.3c0-0.3,0-0.5,0-0.8v45.8c0,5.6,4.5,10.1,10.1,10.1h2.9h34c4.6,0,8.4-3.8,8.4-8.4V36.2C77.7,36.7,77.2,37.2,76.7,37.2z"/><path d="M42.7,59.8c0.4,6.7,4.5,14.2,9.3,14.2c1.4,0,2.7-0.4,3.9-1.3c0.7-0.5,1.5-0.5,2.2,0c1.2,0.8,2.6,1.3,3.9,1.3c4.8,0,8.9-7.5,9.3-14.2c0.2-3.3-0.5-5.9-2.2-7.7c-1.5-1.6-3.8-2.5-6.6-2.5c-1.2,0-2.4,0.3-3.6,1c0.1-1.5-0.3-2.9-1-4.1c-1.3-2-3.6-3.2-6.6-3.4c-0.4,0-0.8,0.2-1,0.6c-1,2.1-1.2,4.2-0.7,6c-2,0.3-3.7,1.1-4.9,2.4C43.2,53.9,42.5,56.5,42.7,59.8z M52,45.2c2,0.3,3.5,1.1,4.3,2.4c0.8,1.2,0.9,2.7,0.5,4.4c-0.1-0.1-0.3-0.2-0.4-0.4c0,0,0,0,0,0c-0.6-0.6-1.3-1-2-1.3c0,0,0,0,0,0c-0.2-0.1-0.4-0.2-0.6-0.3c-0.1,0-0.1,0-0.2-0.1c-0.2-0.1-0.3-0.1-0.5-0.1c-0.1,0-0.2,0-0.3-0.1c-0.1,0-0.3-0.1-0.4-0.1c-0.1,0-0.2,0-0.3,0c-0.1,0-0.1,0-0.2,0C51.3,48.3,51.4,46.8,52,45.2z"/></svg>