<svg xmlns="http://www.w3.org/2000/svg" enable-background="new 0 0 100 100" viewBox="0 0 100 100"><path d="M71.4,35c-1.4-1.6-3.5-2.5-5.6-2.5h-6l1-5.8l6.7-2.5c1.9-0.7,2.9-2.8,2.2-4.8c-0.3-0.9-1-1.7-1.9-2.1c-0.9-0.4-1.9-0.5-2.8-0.1l-8.7,3.2c-1.2,0.5-2.1,1.5-2.3,2.8l-1.6,9.2h-18c-2.2,0-4.2,0.9-5.6,2.5c-1.4,1.6-2.1,3.8-1.8,5.9l1.2,9.8c0,0,0,0,0,0l3.2,25.7c0.5,3.7,3.7,6.6,7.4,6.6h22.7c3.8,0,7-2.8,7.4-6.6L72,50.7c0,0,0,0,0,0l1.2-9.8c0,0,0,0,0,0C73.5,38.8,72.8,36.6,71.4,35z M65.8,34.5c1.6,0,3.1,0.7,4.1,1.9c1,1.2,1.5,2.8,1.3,4.3l-1.1,8.7c-0.1-0.1-0.3-0.1-0.4-0.3c0,0-0.1-0.1-0.1-0.1c-0.1-0.1-0.3-0.2-0.4-0.4c-0.1-0.1-0.1-0.1-0.2-0.2c-0.1-0.1-0.2-0.2-0.3-0.4c-0.1-0.1-0.1-0.1-0.2-0.2c-0.5-0.6-1.1-1.3-1.9-1.8c-0.6-0.4-1.4-0.7-2.4-0.7c-1.2,0-2.1,0.4-2.8,0.9c-0.4,0.3-0.7,0.6-1,0.9c-0.2,0.2-0.4,0.5-0.6,0.7c-0.3,0.4-0.6,0.8-0.9,1c-0.5,0.5-1,0.7-1.8,0.7c-0.1,0-0.2,0-0.3,0l2.6-15.1H65.8z M30.1,36.4c1-1.2,2.5-1.9,4.1-1.9h17.7L50,45.3c0,0,0,0,0,0c-0.8,0-1.4,0.2-1.9,0.4c-1.1,0.5-1.8,1.4-2.4,2.1c-0.3,0.4-0.6,0.8-0.9,1c0,0,0,0,0,0c-0.5,0.5-1,0.7-1.8,0.7c-1.2,0-1.8-0.6-2.7-1.6c0,0-0.1-0.1-0.1-0.1c0,0-0.1-0.1-0.1-0.1c-0.7-0.9-1.6-1.9-3.1-2.3c-0.4-0.1-0.7-0.2-1.2-0.2c-2.2,0-3.4,1.4-4.3,2.5c-0.2,0.2-0.4,0.4-0.5,0.6c0,0-0.1,0.1-0.1,0.1c-0.2,0.2-0.3,0.3-0.5,0.5c0,0,0,0-0.1,0.1c-0.1,0.1-0.3,0.2-0.4,0.3l-1.1-8.7C28.6,39.1,29.1,37.5,30.1,36.4z"/></svg>