<svg xmlns="http://www.w3.org/2000/svg" enable-background="new 0 0 100 100" viewBox="0 0 100 100"><path d="M78.3,41h-5.4v-0.3c0-12.6-10.3-22.9-22.9-22.9c0,0,0,0,0,0c0,0,0,0,0,0s0,0,0,0s0,0,0,0c0,0,0,0,0,0c-12.6,0-22.9,10.3-22.9,22.9V41h-5.4c-2.6,0-4.8,2.2-4.8,4.8c0,2.3,1.6,4.2,3.7,4.7v23.7c0,4.4,3.6,8,8,8c4.4,0,8-3.6,8-8V50.5c2.1-0.5,3.7-2.4,3.7-4.7c0-2.6-2.2-4.8-4.8-4.8h-6.5v-0.3c0-7.7,4.2-14.4,10.4-18.1c-2.1,2.4-3.3,5.5-3.3,8.9c0,7.6,6.2,13.8,13.8,13.8c7.6,0,13.8-6.2,13.8-13.8c0-3.4-1.3-6.5-3.3-8.9c6.2,3.6,10.5,10.4,10.5,18.1V41h-6.5c-2.6,0-4.8,2.2-4.8,4.8c0,2.3,1.6,4.2,3.7,4.7v23.7c0,4.4,3.6,8,8,8c4.4,0,8-3.6,8-8V50.5c2.1-0.5,3.7-2.4,3.7-4.7C83.1,43.2,80.9,41,78.3,41z M57.2,27c0,4-3.2,7.2-7.2,7.2c-4,0-7.2-3.2-7.2-7.2c0-3.7,2.8-6.8,6.4-7.1c0.2,0,0.5,0,0.7,0c0.2,0,0.5,0,0.7,0C54.3,20.3,57.2,23.3,57.2,27z M50,43.4c-6.5,0-11.8-5.3-11.8-11.8c0-3.2,1.3-6.1,3.3-8.2c-0.5,1.1-0.7,2.3-0.7,3.6c0,5.1,4.1,9.2,9.2,9.2c5.1,0,9.2-4.1,9.2-9.2c0-1.3-0.3-2.5-0.7-3.6c2,2.1,3.3,5,3.3,8.2C61.8,38.1,56.5,43.4,50,43.4z"/></svg>