<svg xmlns="http://www.w3.org/2000/svg" enable-background="new 0 0 100 100" viewBox="0 0 100 100"><path d="M79.4,59.2H53.1l26.4-18.8c0.8-0.5,1.3-1.4,1.4-2.3c0.4-0.7,0.6-1.5,0.6-2.3v-8.3c0-2.8-2.3-5-5-5H20.6c-2.8,0-5,2.3-5,5v8.3c0,2.8,2.3,5,5,5h26.7L20.2,60.2c-1.2,0.9-1.8,2.3-1.7,3.7c0,0,0,0,0,0c0,0.1,0,0.2,0,0.3v8.3c0,2.8,2.3,5,5,5h55.9c2.8,0,5-2.3,5-5v-8.3C84.4,61.4,82.2,59.2,79.4,59.2z M17.6,35.8v-8.3c0-1.7,1.4-3,3-3h55.9c1.7,0,3,1.4,3,3v8.3c0,0.5-0.2,1-0.4,1.5c-0.2,0.5-0.6,0.8-1,1.1c0,0-0.1,0.1-0.2,0.1c-0.2,0.1-0.3,0.2-0.5,0.2c-0.1,0-0.1,0-0.2,0.1c-0.2,0.1-0.5,0.1-0.7,0.1h-1.5v-2c0-0.6-0.4-1-1-1s-1,0.4-1,1v2h-5.3v-4.2c0-0.6-0.4-1-1-1s-1,0.4-1,1v4.2h-5.3v-2c0-0.6-0.4-1-1-1s-1,0.4-1,1v2h-5.3v-4.2c0-0.6-0.4-1-1-1s-1,0.4-1,1v4.2h-0.8c0,0,0,0,0,0h-4.5v-2c0-0.6-0.4-1-1-1s-1,0.4-1,1v2h-5.3v-4.2c0-0.6-0.4-1-1-1s-1,0.4-1,1v4.2h-5.3v-2c0-0.6-0.4-1-1-1s-1,0.4-1,1v2h-4.2v-4.2c0-0.6-0.4-1-1-1s-1,0.4-1,1v4.2h-2.6C18.9,38.8,17.6,37.5,17.6,35.8z M82.4,72.5c0,1.7-1.4,3-3,3H78v-2c0-0.6-0.4-1-1-1s-1,0.4-1,1v2h-5.3v-4.2c0-0.6-0.4-1-1-1s-1,0.4-1,1v4.2h-5.3v-2c0-0.6-0.4-1-1-1s-1,0.4-1,1v2h-5.3v-4.2c0-0.6-0.4-1-1-1s-1,0.4-1,1v4.2h-5.3v-2c0-0.6-0.4-1-1-1s-1,0.4-1,1v2h-5.3v-4.2c0-0.6-0.4-1-1-1s-1,0.4-1,1v4.2h-5.3v-2c0-0.6-0.4-1-1-1s-1,0.4-1,1v2h-5.3v-4.2c0-0.6-0.4-1-1-1s-1,0.4-1,1v4.2h-1.4c-1.7,0-3-1.4-3-3v-8.3c0-0.2,0-0.4,0.1-0.5c0,0,0-0.1,0-0.1c0-0.2,0.1-0.3,0.1-0.4c0,0,0-0.1,0-0.1c0.1-0.1,0.1-0.3,0.2-0.4c0,0,0-0.1,0.1-0.1c0.1-0.1,0.2-0.3,0.3-0.4c0,0,0,0,0.1-0.1c0.1-0.1,0.3-0.2,0.4-0.3c0,0,0,0,0,0c0.1-0.1,0.3-0.2,0.5-0.3c0,0,0,0,0,0c0.4-0.2,0.8-0.2,1.2-0.2h55.9c1.7,0,3,1.4,3,3V72.5z"/></svg>