<svg xmlns="http://www.w3.org/2000/svg" enable-background="new 0 0 100 100" viewBox="0 0 100 100"><path d="M63.1,42.8v-5.6c0-2-1.2-3.7-2.9-4.6l4.5-10.4c0.5-1.1,0.4-2.4-0.3-3.4c-0.7-1-1.8-1.6-3-1.6h-7.2c-1.4,0-2.7,0.8-3.3,2.2l-0.5,1.1L50,19.3c-0.6-1.3-1.9-2.2-3.3-2.2h-7.2c-1.2,0-2.3,0.6-3,1.6c-0.7,1-0.8,2.3-0.3,3.4l4.4,10.1c-2.1,0.6-3.7,2.6-3.7,4.9v5.6c-5.5,4-9.1,10.6-9.1,17.9c0,12.2,10,22.2,22.2,22.2c12.2,0,22.2-10,22.2-22.2C72.2,53.3,68.6,46.8,63.1,42.8z M38.9,37.1c0-1.7,1.4-3.1,3.1-3.1H58c1.7,0,3.1,1.4,3.1,3.1v4.3c-0.5-0.3-1-0.5-1.5-0.8c0,0,0.1,0,0.1,0.1c-2.9-1.4-6.2-2.2-9.7-2.2c-4,0-7.7,1.1-11,2.9c0.1,0,0.1-0.1,0.2-0.1c-0.1,0-0.2,0.1-0.3,0.1V37.1z M61.4,41.6C61.4,41.6,61.4,41.6,61.4,41.6C61.4,41.6,61.4,41.6,61.4,41.6z M38,42C38,42,38,42,38,42C38,42,38,42,38,42z M50,80.9c-11.1,0-20.2-9.1-20.2-20.2c0-11.1,9.1-20.2,20.2-20.2c11.1,0,20.2,9.1,20.2,20.2C70.2,71.8,61.1,80.9,50,80.9z"/><path d="M59.6,53.6L55.3,53l-1.9-3.9c-0.7-1.3-2-2.1-3.4-2.1c-1.5,0-2.8,0.8-3.4,2.1L44.7,53l-4.3,0.6c-1.5,0.2-2.6,1.2-3.1,2.6c-0.5,1.4-0.1,2.9,1,3.9l3.1,3l-0.7,4.3c-0.3,1.5,0.3,2.9,1.5,3.7c1.2,0.9,2.7,1,4,0.3l3.8-2l3.8,2c0.6,0.3,1.2,0.4,1.8,0.4c0.8,0,1.6-0.2,2.2-0.7c1.2-0.9,1.8-2.3,1.5-3.7l-0.7-4.3l3.1-3c1.1-1,1.4-2.5,1-3.9C62.3,54.8,61.1,53.8,59.6,53.6z"/></svg>