<svg xmlns="http://www.w3.org/2000/svg" enable-background="new 0 0 100 100" viewBox="0 0 100 100"><path d="M73,38.7c0-0.8-0.2-1.5-0.5-2.2l-5.4-10.9v-4.5c0-2.4-2-4.4-4.4-4.4H40.1c-2.4,0-4.4,2-4.4,4.4v4.4l-7.8,10.6c-0.6,0.9-1,1.9-1,2.9v0.1c0,0,0,0,0,0V77c0,3.4,2.8,6.2,6.2,6.2h10.1c0,0,0,0,0,0h23.6c3.4,0,6.2-2.8,6.2-6.2V39.2c0,0,0,0,0,0V38.7z M37.7,21.2c0-1.3,1.1-2.4,2.4-2.4h22.6c1.3,0,2.4,1.1,2.4,2.4v3.7H37.7V21.2z M29.5,37.4l7.1-9.6l0,0l5.3,9.7c0.1,0.2,0.2,0.5,0.3,0.8H29.1C29.2,37.9,29.3,37.6,29.5,37.4z M71,77c0,2.3-1.9,4.2-4.2,4.2H44.2v-41H71V77z"/><path d="M58.1,71.5c4,0,7.2-3.2,7.2-7.2c0-2.6-3.2-7.2-5.3-10c-1-1.3-2.9-1.3-3.8,0c-2.1,2.8-5.3,7.4-5.3,10C50.9,68.2,54.2,71.5,58.1,71.5z"/></svg>