<svg xmlns="http://www.w3.org/2000/svg" enable-background="new 0 0 100 100" viewBox="0 0 100 100"><path d="M30.3 47.2h18.3c2.8 0 5.1-2.3 5.1-5.1v-13c0-2.8-2.3-5.1-5.1-5.1H30.3c-2.8 0-5.1 2.3-5.1 5.1v13C25.2 44.9 27.5 47.2 30.3 47.2zM46.6 35.5c0-.5.5-1 1-1s1 .5 1 1v4c0 .6-.5 1-1 1s-1-.4-1-1V35.5zM41.2 31.6c0-.5.5-1 1-1 .6 0 1 .5 1 1v7.9c0 .6-.4 1-1 1-.5 0-1-.4-1-1V31.6zM35.9 35.5c0-.5.5-1 1-1s1 .5 1 1v4c0 .6-.5 1-1 1s-1-.4-1-1V35.5zM30.5 33.5c0-.5.4-1 1-1 .5 0 1 .5 1 1v6c0 .6-.5 1-1 1-.6 0-1-.4-1-1V33.5zM40.2 59c-3 0-5.4 2.4-5.4 5.4 0 3 2.4 5.4 5.4 5.4 3 0 5.4-2.4 5.4-5.4C45.5 61.4 43.1 59 40.2 59zM31.6 60.2c-.7-.3-1.5-.2-2.1.3l-2.7 2.3c-.4.4-.7.9-.7 1.5 0 .6.3 1.2.7 1.5l2.7 2.3c.4.3.8.5 1.3.5.3 0 .6-.1.9-.2.7-.3 1.2-1 1.2-1.8V62C32.8 61.3 32.4 60.6 31.6 60.2zM38.6 51l-2.3 2.7c-.5.6-.6 1.4-.3 2.1.3.7 1 1.2 1.8 1.2h4.6c.8 0 1.5-.5 1.8-1.2.3-.7.2-1.5-.3-2.1L41.7 51C40.9 50 39.4 50 38.6 51zM42.4 71.7h-4.6c-.8 0-1.5.5-1.8 1.2-.3.7-.2 1.5.3 2.1l2.3 2.7c.4.5.9.7 1.5.7.6 0 1.2-.3 1.5-.7L44 75c.5-.6.6-1.4.3-2.1C43.9 72.1 43.2 71.7 42.4 71.7zM50.8 60.5c-.6-.5-1.4-.6-2.1-.3-.7.3-1.2 1-1.2 1.8v4.6c0 .8.4 1.5 1.2 1.8.3.1.6.2.8.2.5 0 .9-.2 1.3-.5l2.7-2.3c.5-.4.7-.9.7-1.5 0-.6-.3-1.1-.7-1.5L50.8 60.5z"/><path d="M82.5,39c0-2.6-2.1-4.7-4.7-4.7c-2.6,0-4.7,2.1-4.7,4.7c0,2,1.2,3.6,2.9,4.3v3.3c0,0.6,0.3,1.1,0.8,1.5c0,0.1-0.1,0.2-0.1,0.3v4.4c0,1.4-1.1,2.5-2.5,2.5h-5.2v-17c0-0.1,0-0.2-0.1-0.3c0.5-0.3,0.8-0.8,0.8-1.5v-3.3c1.7-0.7,2.9-2.4,2.9-4.3c0-2.6-2.1-4.7-4.7-4.7c-2.6,0-4.7,2.1-4.7,4.7c0,2,1.2,3.6,2.9,4.3v3.3c0,0.6,0.3,1.1,0.8,1.5c0,0.1-0.1,0.2-0.1,0.3v18c0,0,0,0,0,0s0,0,0,0v8.9c0,3.1-2.5,5.5-5.5,5.5h-0.1V27.3c0-5.7-4.6-10.3-10.3-10.3H27.8c-5.7,0-10.3,4.6-10.3,10.3v45.3c0,5.7,4.6,10.3,10.3,10.3h23.2c5.6,0,10.2-4.5,10.3-10.1h0.2c4.2,0,7.5-3.4,7.5-7.5v-7.9h5.2c2.5,0,4.5-2,4.5-4.5v-4.4c0-0.1,0-0.2-0.1-0.3c0.5-0.3,0.8-0.8,0.8-1.5v-3.3C81.3,42.7,82.5,41,82.5,39z M59.4,72.7c0,4.6-3.7,8.3-8.3,8.3H27.8c-4.6,0-8.3-3.7-8.3-8.3V27.3c0-4.6,3.7-8.3,8.3-8.3h23.2c4.6,0,8.3,3.7,8.3,8.3V72.7z M68.9,33.6C69,33.6,69,33.6,68.9,33.6C69,33.6,69,33.6,68.9,33.6z M67.4,33.6c-0.1,0-0.2,0-0.2,0C67.3,33.6,67.3,33.6,67.4,33.6z M77.2,43.7c-0.1,0-0.2,0-0.2,0C77,43.6,77.1,43.6,77.2,43.7z M78.7,43.6C78.7,43.6,78.7,43.6,78.7,43.6C78.7,43.6,78.7,43.6,78.7,43.6z"/></svg>