<svg xmlns="http://www.w3.org/2000/svg" enable-background="new 0 0 100 100" viewBox="0 0 100 100"><path d="M81.7,34c0-7.7-6.3-14-14-14c-3.9,0-7.4,1.6-10,4.2c-4.2-4.8-8.8-7.4-13.3-7.4c-14.8,0-26.1,26.9-26.1,40.4c0,14.4,11.7,26,26.1,26c14.4,0,26.1-11.7,26.1-26c0-2.7-0.4-5.9-1.2-9.3c0,0,0,0,0,0C76.2,47.1,81.7,41.2,81.7,34z M44.4,81.2c-13.3,0-24.1-10.8-24.1-24c0-13,10.9-38.4,24.1-38.4c4.9,0,9.2,3.6,12,6.9c-0.1,0.1-0.1,0.2-0.2,0.3c-0.1,0.1-0.2,0.3-0.3,0.4c-0.1,0.1-0.1,0.2-0.2,0.3c0-0.1,0.1-0.1,0.1-0.2c-1.4,2.2-2.1,4.7-2.1,7.4c0,7.7,6.3,14,13.9,14c-0.1,0-0.3,0-0.4,0c0.8,3.4,1.3,6.5,1.3,9.2C68.4,70.4,57.7,81.2,44.4,81.2z M67.7,46c-6.6,0-12-5.4-12-12s5.4-12,12-12s12,5.4,12,12S74.3,46,67.7,46z"/><path d="M71.6 34l2.4-2.4c1.1-1.1 1.1-2.9 0-3.9-1.1-1.1-2.9-1.1-3.9 0L67.7 30l-2.4-2.4c-1.1-1.1-2.9-1.1-3.9 0-1.1 1.1-1.1 2.9 0 3.9l2.4 2.4-2.4 2.4c-.5.5-.8 1.2-.8 2 0 .8.3 1.5.8 2 1 1 2.9 1.1 3.9 0l2.4-2.4 2.4 2.4c.5.5 1.2.8 2 .8.8 0 1.5-.3 2-.8.5-.5.8-1.2.8-2 0-.7-.3-1.5-.8-2L71.6 34zM44.4 42.8c-8.8 0-16 7.2-16 16 0 8.8 7.2 16 16 16s16-7.2 16-16C60.4 50 53.2 42.8 44.4 42.8z"/></svg>