<svg xmlns="http://www.w3.org/2000/svg" enable-background="new 0 0 100 100" viewBox="0 0 100 100"><path d="M66.1,17H33.9c-5.3,0-9.7,4.4-9.7,9.7v46.6c0,5.3,4.4,9.7,9.7,9.7h32.2c5.3,0,9.7-4.4,9.7-9.7V26.7C75.8,21.4,71.5,17,66.1,17z M73.8,73.3c0,4.2-3.5,7.7-7.7,7.7H33.9c-4.2,0-7.7-3.5-7.7-7.7V26.7c0-4.2,3.5-7.7,7.7-7.7h32.2c4.2,0,7.7,3.5,7.7,7.7V73.3z"/><path d="M67.2 46.9H49.4c-.6 0-1 .4-1 1s.4 1 1 1h17.8c.6 0 1-.4 1-1S67.8 46.9 67.2 46.9zM49.4 54.6h10.8c.6 0 1-.4 1-1s-.4-1-1-1H49.4c-.6 0-1 .4-1 1S48.8 54.6 49.4 54.6zM41.3 62.5h-5.9c-2 0-3.6 1.6-3.6 3.6V72c0 2 1.6 3.6 3.6 3.6h5.9c2 0 3.6-1.6 3.6-3.6v-5.9C44.9 64.1 43.3 62.5 41.3 62.5zM40.8 68.7l-2.6 2.2c-.2.1-.4.2-.6.2 0 0-.1 0-.1 0-.3 0-.5-.2-.7-.4l-1-1.4c-.3-.4-.2-1.1.3-1.4.5-.3 1.1-.2 1.4.3l.3.5 1.8-1.5c.4-.4 1-.3 1.4.1C41.2 67.7 41.2 68.3 40.8 68.7zM35.6 39.3h28.7c2.1 0 3.9-1.7 3.9-3.9v-7.1c0-2.1-1.7-3.9-3.9-3.9H35.6c-2.1 0-3.9 1.7-3.9 3.9v7.1C31.8 37.5 33.5 39.3 35.6 39.3zM41.3 44.2h-5.9c-2 0-3.6 1.6-3.6 3.6v5.9c0 2 1.6 3.6 3.6 3.6h5.9c2 0 3.6-1.6 3.6-3.6v-5.9C44.9 45.8 43.3 44.2 41.3 44.2zM40.8 50.4l-2.6 2.2c-.2.2-.4.2-.6.2 0 0-.1 0-.1 0-.3 0-.5-.2-.7-.4l-1-1.4c-.3-.5-.2-1.1.3-1.4.5-.3 1.1-.2 1.4.3l.3.5 1.8-1.5c.4-.3 1-.3 1.4.1C41.2 49.4 41.2 50 40.8 50.4zM67.2 65.2H49.4c-.6 0-1 .4-1 1s.4 1 1 1h17.8c.6 0 1-.4 1-1S67.8 65.2 67.2 65.2zM60.2 70.9H49.4c-.6 0-1 .4-1 1s.4 1 1 1h10.8c.6 0 1-.4 1-1S60.7 70.9 60.2 70.9z"/></svg>