<svg xmlns="http://www.w3.org/2000/svg" enable-background="new 0 0 100 100" viewBox="0 0 100 100"><path d="M81,53.2c-0.6,0-1,0.4-1,1v5.9c-1.7,0.3-2.7,1.3-3.6,2.1c-0.9,0.9-1.6,1.7-3.2,1.7c-1.5,0-2.3-0.7-3.2-1.7c-0.7-0.7-1.6-1.6-3-2V29.1c0-2,1.6-3.7,3.7-3.7c2,0,3.7,1.6,3.7,3.7v3c0,1.9,1.5,3.4,3.4,3.4c1.9,0,3.4-1.5,3.4-3.4v-3c0-5.8-4.7-10.5-10.5-10.5c-5.8,0-10.5,4.7-10.5,10.5v9.6H35.7v-9.6c0-2,1.6-3.7,3.7-3.7c2,0,3.7,1.6,3.7,3.7v3c0,1.9,1.5,3.4,3.4,3.4c1.9,0,3.4-1.5,3.4-3.4v-3c0-5.8-4.7-10.5-10.5-10.5c-5.8,0-10.5,4.7-10.5,10.5v34.1c-0.6,0.4-1.2,0.7-2.1,0.7c-1.5,0-2.3-0.7-3.2-1.7c-0.8-0.8-1.9-1.8-3.6-2.1v-5.9c0-0.6-0.4-1-1-1s-1,0.4-1,1v17c0,5.6,4.6,10.2,10.2,10.2h43.8c5.6,0,10.2-4.6,10.2-10.2v-17C82,53.6,81.6,53.2,81,53.2z M60.2,62.9c-0.7,0.6-1.3,1-2.5,1c-1.5,0-2.3-0.7-3.2-1.7c-1-1-2.2-2.2-4.6-2.2c-2.3,0-3.6,1.2-4.6,2.2c-0.9,0.9-1.6,1.7-3.2,1.7c-1.5,0-2.3-0.7-3.2-1.7c-0.8-0.8-1.8-1.7-3.3-2.1v-3.8h24.5V62.9z M70.7,20.6c4.7,0,8.5,3.8,8.5,8.5v3c0,0.8-0.6,1.4-1.4,1.4s-1.4-0.6-1.4-1.4v-3c0-3.1-2.5-5.7-5.7-5.7c-3.1,0-5.7,2.5-5.7,5.7V60c-1.2,0.1-2.1,0.5-2.8,1V29.1C62.2,24.4,66,20.6,70.7,20.6z M60.2,45.5v4.1H35.7v-4.1H60.2z M39.4,20.6c4.7,0,8.5,3.8,8.5,8.5v3c0,0.8-0.6,1.4-1.4,1.4S45,32.9,45,32.1v-3c0-3.1-2.5-5.7-5.7-5.7c-3.1,0-5.7,2.5-5.7,5.7v30.9c-1.2,0.2-2.1,0.7-2.8,1.3V29.1C30.9,24.4,34.7,20.6,39.4,20.6z"/></svg>