<svg xmlns="http://www.w3.org/2000/svg" enable-background="new 0 0 100 100" viewBox="0 0 100 100"><path d="M39.4 46v-2.7c0-1.4-1-2.6-2.4-2.9V27.3c0-2.2-1.8-4-4-4s-4 1.8-4 4v13.1c-1.3.3-2.4 1.4-2.4 2.9V46c-6.3 2.7-10.1 9.1-9.6 16 .6 7.6 6.6 13.7 14.1 14.5.6.1 1.2.1 1.8.1 3.9 0 7.8-1.4 10.7-4.1 3.4-3 5.3-7.4 5.3-11.9C49 54.3 45.2 48.5 39.4 46zM31 27.3c0-1.1.9-2 2-2s2 .9 2 2v13.1h-4V27.3zM33 69c-4.6 0-8.3-3.7-8.3-8.3 0-4.6 3.7-8.3 8.3-8.3s8.3 3.7 8.3 8.3C41.3 65.3 37.6 69 33 69zM73.4 46v-2.7c0-1.4-1-2.6-2.4-2.9V27.3c0-2.2-1.8-4-4-4s-4 1.8-4 4v13.1c-1.3.3-2.4 1.4-2.4 2.9V46c-6.3 2.7-10.1 9.1-9.6 16 .6 7.6 6.6 13.7 14.1 14.5.6.1 1.2.1 1.8.1 4 0 7.8-1.4 10.7-4.1 3.4-3 5.3-7.4 5.3-11.9C83 54.3 79.2 48.5 73.4 46zM65 27.3c0-1.1.9-2 2-2s2 .9 2 2v13.1h-4V27.3zM67 69c-4.6 0-8.3-3.7-8.3-8.3 0-4.6 3.7-8.3 8.3-8.3 4.6 0 8.3 3.7 8.3 8.3C75.3 65.3 71.6 69 67 69z"/></svg>