<svg xmlns="http://www.w3.org/2000/svg" enable-background="new 0 0 100 100" viewBox="0 0 100 100"><path d="M76.6,43.2l-16.7-7.5c0,0,0,0,0,0c0,0,0,0,0,0l-4.5-2c0,0-0.1-0.1-0.1-0.1c-0.1,0-0.2-0.1-0.3-0.1l-4.5-2c-1.2-0.5-2.6-0.4-3.7,0.3c-1.1,0.7-1.8,1.9-1.8,3.3c0,1.1-1,2-2.2,2H29.3c-1.2,0-2.2-1-2.2-2.2c0-2.5-1.7-4.7-4.1-5.1c-1.7-0.3-3.3,0.2-4.6,1.4c-1,1-1.5,2.2-1.5,3.6V62c0,0,0,0,0,0v3.9c0,2.5,2,4.5,4.5,4.5h57c2.5,0,4.5-2,4.5-4.5V62v0v-9C83,48.8,80.5,44.9,76.6,43.2z M19,34.7c0-0.8,0.3-1.6,0.9-2.2c0.7-0.7,1.7-1,2.8-0.8c1.4,0.3,2.5,1.6,2.5,3.2c0,2.3,1.9,4.2,4.2,4.2h13.3c2.3,0,4.2-1.8,4.2-4c0-0.7,0.3-1.3,0.9-1.6c0.6-0.4,1.2-0.4,1.8-0.1l3.7,1.6l-2,3.7c-0.3,0.5-0.1,1.1,0.4,1.4c0.2,0.1,0.3,0.1,0.5,0.1c0.4,0,0.7-0.2,0.9-0.5l2.1-3.8l2.8,1.3l-2,3.7c-0.3,0.5-0.1,1.1,0.4,1.4c0.2,0.1,0.3,0.1,0.5,0.1c0.4,0,0.7-0.2,0.9-0.5l2.1-3.8l3,1.3l-2.1,3.9c-0.3,0.5-0.1,1.1,0.4,1.4c0.2,0.1,0.3,0.1,0.5,0.1c0.4,0,0.7-0.2,0.9-0.5l2.2-4l4.1,1.8c-3.5,6.8-4.1,13.3-0.2,19.2H32.8c0-0.5,0.1-0.9,0.1-1.4c0-7.9-6.1-14.3-13.9-14.8V34.7z M81,65.9C81,65.9,81,65.9,81,65.9l-62,0c0,0,0,0,0,0V63h62V65.9z"/></svg>