<svg xmlns="http://www.w3.org/2000/svg" enable-background="new 0 0 100 100" viewBox="0 0 100 100"><path d="M74.5 53.8c0-.1 0-.2 0-.2v-33c0-.8-.4-1.6-1-2.1-.6-.5-1.5-.8-2.3-.7-8.2 1.1-14.4 8.2-14.4 16.5V47c0 4.1 3.4 7.5 7.5 7.5h.4c-2.5 6.3-4.2 16.4-4.2 19.8 0 5.1 4.2 9.3 9.3 9.3.2 0 .4 0 .6 0 .2 0 .4 0 .6-.1.2 0 .4 0 .6-.1.2 0 .3-.1.6-.1.2-.1.4-.1.7-.2l.4-.1c.2-.1.4-.2.5-.2.2-.1.4-.2.6-.3.1-.1.3-.2.3-.2.8-.5 1.6-1.2 2.2-1.9.1-.1.2-.3.3-.4.1-.2.3-.4.4-.5 1-1.5 1.5-3.3 1.5-5C79.1 71.3 77.3 60.3 74.5 53.8zM58.9 47V34.2c0-7.3 5.5-13.6 12.7-14.6 0 0 .1 0 .1 0 .2 0 .4.1.6.2.1.1.3.3.3.6v32h-8.2C61.3 52.5 58.9 50.1 58.9 47zM69.8 77.2c-1.7 0-3.1-1.4-3.1-3.1 0-1.7 1.4-3.1 3.1-3.1 1.7 0 3.1 1.4 3.1 3.1C72.9 75.8 71.5 77.2 69.8 77.2zM48.9 16.4c-2.2 0-4 1.8-4 4v14.2c0 1.1-.9 2-2 2-1.1 0-2-.9-2-2V20.3c0-2.2-1.8-4-4-4-2.2 0-4 1.8-4 4v14.2c0 1.1-.9 2-2 2-1.1 0-2-.9-2-2V20.3c0-2.2-1.8-4-4-4s-4 1.8-4 4v15.9c0 6.9 4.4 12.7 10.5 15-3 6.9-5 19.1-5 22.5 0 5.5 4.5 10 10 10 5.5 0 10-4.5 10-10 0-3.3-1.9-15.2-4.9-22.2 6.6-2 11.4-8.1 11.4-15.3V20.3C52.9 18.1 51.1 16.4 48.9 16.4zM36.4 76.8c-1.9 0-3.4-1.5-3.4-3.4 0-1.9 1.5-3.4 3.4-3.4 1.9 0 3.4 1.5 3.4 3.4C39.7 75.2 38.2 76.8 36.4 76.8zM50.9 36.2c0 6.7-4.8 12.3-11.1 13.7-.5.1-1 .2-1.6.2-.1 0-.2 0-.2 0-.5 0-.9 0-1.4 0-.1 0-.3 0-.4 0-.4 0-.8-.1-1.2-.1-.1 0-.3 0-.4-.1-.4-.1-.8-.2-1.3-.3-5.9-1.6-10.3-7-10.3-13.5V20.3c0-1.1.9-2 2-2s2 .9 2 2v14.2c0 2.2 1.8 4 4 4 2.2 0 4-1.8 4-4V20.3c0-1.1.9-2 2-2 1.1 0 2 .9 2 2v14.2c0 2.2 1.8 4 4 4 2.2 0 4-1.8 4-4V20.3c0-1.1.9-2 2-2 1.1 0 2 .9 2 2V36.2z"/></svg>