<svg xmlns="http://www.w3.org/2000/svg" enable-background="new 0 0 100 100" viewBox="0 0 100 100"><path d="M68.5,39.2l0.1,0.1c0.6,0.4,1.3,0.7,2,0.7c0.2,0,0.3,0,0.5,0c0.9-0.1,1.7-0.6,2.2-1.4c1.1-1.5,0.8-3.7-0.7-4.8l-5.3-3.9c-1.5-1.1-3.7-0.8-4.8,0.7c-0.5,0.7-0.8,1.6-0.6,2.5c0.1,0.9,0.6,1.7,1.3,2.2l0.1,0.1l-1.4,1.9c-2.2-1.3-4.7-2.3-7.4-2.9c2.5-1.6,4.1-4.4,4.1-7.5c0-5-4.1-9-9-9c-5,0-9,4.1-9,9c0,3.2,1.6,5.9,4.1,7.5c-10.8,2.3-19,11.9-19,23.5c0,13.2,10.8,24,24,24s24-10.8,24-24c0-6.5-2.6-12.4-6.8-16.7L68.5,39.2z M42.8,27c0-3.9,3.2-7,7-7c3.9,0,7,3.2,7,7c0,2.5-1.3,4.6-3.2,5.9v-2.1c0-2.1-1.7-3.8-3.8-3.8c-2.1,0-3.8,1.7-3.8,3.8v2.1C44.1,31.7,42.8,29.5,42.8,27z M59.2,72.2l-1.3-2.2c-0.3-0.5-0.9-0.6-1.4-0.4c-0.5,0.3-0.6,0.9-0.4,1.4l1.3,2.2c-2,1-4.2,1.6-6.6,1.8v-2.6c0-0.6-0.4-1-1-1s-1,0.4-1,1v2.6c-2.4-0.1-4.6-0.7-6.6-1.8l1.3-2.2c0.3-0.5,0.1-1.1-0.4-1.4c-0.5-0.3-1.1-0.1-1.4,0.4l-1.3,2.2c-1.9-1.3-3.6-2.9-4.8-4.9l2.2-1.3c0.5-0.3,0.6-0.9,0.4-1.4c-0.3-0.5-0.9-0.6-1.4-0.4l-2.2,1.3c-1-2-1.6-4.2-1.7-6.6h2.5c0.6,0,1-0.4,1-1s-0.4-1-1-1h-2.5c0.1-2.4,0.8-4.6,1.8-6.6l2.1,1.2c0.2,0.1,0.3,0.1,0.5,0.1c0.3,0,0.7-0.2,0.9-0.5c0.3-0.5,0.1-1.1-0.4-1.4l-2.2-1.2c1.3-1.9,2.9-3.5,4.8-4.8l1.2,2.1c0.2,0.3,0.5,0.5,0.9,0.5c0.2,0,0.3,0,0.5-0.1c0.5-0.3,0.6-0.9,0.4-1.4l-1.2-2.1c2-1,4.2-1.6,6.6-1.7v2.4c0,0.6,0.4,1,1,1s1-0.4,1-1v-2.4c2.3,0.1,4.6,0.7,6.6,1.7L56.2,45c-0.3,0.5-0.1,1.1,0.4,1.4c0.2,0.1,0.3,0.1,0.5,0.1c0.3,0,0.7-0.2,0.9-0.5l1.2-2.1c1.9,1.3,3.6,2.9,4.8,4.8l-2.1,1.2c-0.5,0.3-0.6,0.9-0.4,1.4c0.2,0.3,0.5,0.5,0.9,0.5c0.2,0,0.3,0,0.5-0.1l2.1-1.2c1,2,1.6,4.2,1.8,6.6h-2.5c-0.6,0-1,0.4-1,1s0.4,1,1,1h2.5c-0.1,2.4-0.7,4.6-1.7,6.6l-2.2-1.3c-0.5-0.3-1.1-0.1-1.4,0.4c-0.3,0.5-0.1,1.1,0.4,1.4l2.2,1.3C62.8,69.2,61.1,70.9,59.2,72.2z"/><path d="M56.7,57.1h-4.1c-0.3-0.8-0.9-1.5-1.7-1.8v-5.9c0-0.6-0.4-1-1-1s-1,0.4-1,1v5.8c-1.3,0.4-2.2,1.5-2.2,2.9c0,1.7,1.3,3,3,3c1.3,0,2.4-0.8,2.8-1.9h4.1c0.6,0,1-0.4,1-1S57.3,57.1,56.7,57.1z"/></svg>