<svg xmlns="http://www.w3.org/2000/svg" enable-background="new 0 0 100 100" viewBox="0 0 100 100"><path d="M72.4,45.2C72.4,45.2,72.4,45.2,72.4,45.2L72.4,45.2c0-5.7-4.2-10.4-9.6-11.2v-3.5h0.1c2.1,0,3.8-1.7,3.8-3.8v-5.8c0-2.1-1.7-3.8-3.8-3.8H37.2c-2.1,0-3.8,1.7-3.8,3.8v5.8c0,2.1,1.7,3.8,3.8,3.8h0.1V34c-5.4,0.8-9.6,5.5-9.6,11.2c0,0,0,0,0,0v26.5c0,0,0,0,0,0c0,0,0,0,0,0c0,6.2,5.1,11.3,11.3,11.3h22.2c6.2,0,11.3-5.1,11.3-11.3c0,0,0,0,0,0V45.2z M35.3,26.6v-5.8c0-1,0.8-1.8,1.8-1.8h1.5v2.7c0,0.6,0.4,1,1,1s1-0.4,1-1V19h3.1v2.7c0,0.6,0.4,1,1,1s1-0.4,1-1V19H49v2.7c0,0.6,0.4,1,1,1s1-0.4,1-1V19h3.1v2.7c0,0.6,0.4,1,1,1s1-0.4,1-1V19h3.1v2.7c0,0.6,0.4,1,1,1s1-0.4,1-1V19h1.5c1,0,1.8,0.8,1.8,1.8v5.8c0,1-0.8,1.8-1.8,1.8H37.2C36.1,28.4,35.3,27.6,35.3,26.6z M29.6,46.2h40.8v24.5H29.6V46.2z"/><path d="M56.7,51.3c-2.3-2.3-6.1-2.3-8.5,0l-3.5,3.5l-3.9,3.9c-2.3,2.3-2.3,6.1,0,8.5c1.2,1.2,2.7,1.8,4.2,1.8s3.1-0.6,4.2-1.8l3.9-3.9c0,0,0,0,0,0l3.5-3.5C59.1,57.5,59.1,53.7,56.7,51.3z M49.7,52.8c0.8-0.8,1.8-1.2,2.8-1.2c0.8,0,1.5,0.2,2.2,0.7c0.2,0.1,0.4,0.3,0.6,0.5c1.6,1.6,1.6,4.1,0,5.6l-2.8,2.8l-5.6-5.6L49.7,52.8z M47.9,65.8c-1.6,1.6-4.1,1.6-5.6,0c-1.6-1.6-1.6-4.1,0-5.6l3.2-3.2l5.6,5.6L47.9,65.8z"/></svg>