<svg xmlns="http://www.w3.org/2000/svg" enable-background="new 0 0 100 100" viewBox="0 0 100 100"><path d="M71.9,46C71.9,46,71.9,46,71.9,46l0-1c0-2.8-1.3-5.4-3.4-7.2L65,35.2v-2.4c1.8-0.3,3.3-1.9,3.3-3.8v-7.2c0-2.1-1.7-3.8-3.8-3.8h-29c-2.1,0-3.8,1.7-3.8,3.8v7.2c0,1.9,1.4,3.5,3.3,3.8v2.4l-3.5,2.8c-2.2,1.7-3.4,4.4-3.4,7.2v27.9c0,5,4.1,9.2,9.2,9.2h25.6c5,0,9.1-4.1,9.1-9.2v-1.3c0,0,0,0,0,0V46z M32.7,39.5l3.8-3c0.2-0.2,0.4-0.5,0.4-0.8v-2.9H63v2.9c0,0.3,0.1,0.6,0.4,0.8l3.8,3c1.7,1.4,2.7,3.4,2.7,5.5H30.1C30.1,42.8,31.1,40.8,32.7,39.5z M44.9,59.9c-0.9,0-1.4-1-1-1.7l4.4-7.2c0.6-1,2.1-0.5,2.1,0.6v5.8H56c0.9,0,1.4,1,1,1.7l-4.4,7.2c-0.6,1-2.1,0.5-2.1-0.6v-5.8H44.9z M62.8,80.1H37.2c-3.9,0-7.2-3.2-7.2-7.2v-0.3h39.9v0.3C69.9,76.9,66.7,80.1,62.8,80.1z"/></svg>