<svg xmlns="http://www.w3.org/2000/svg" enable-background="new 0 0 100 100" viewBox="0 0 100 100"><path d="M79.1,35.9c-2.6-3.4-6.3-5.5-10.4-6.1c-4.2-0.6-8.3,0.5-11.7,3.1l-7.6,5.8v-5.8c0-8.7-7.1-15.8-15.8-15.8c-8.7,0-15.8,7.1-15.8,15.8v16.9c0,0,0,0,0,0v17.5c0,4.2,1.6,8.2,4.6,11.2c3,3,7,4.6,11.2,4.6c1.9,0,3.7-0.4,5.4-1c0.1,0,0.2,0,0.2,0c3.5,0,6.8-1.1,9.5-3.2l13.9-10.5c0,0,0,0,0,0l13.5-10.2c4-3,6.3-7.6,6.3-12.6C82.3,42,81.2,38.7,79.1,35.9z M23.7,77c-2.6-2.6-4-6.1-4-9.8V50.7h27.7v16.5c0,7.6-6.2,13.8-13.8,13.8C29.8,81,26.3,79.6,23.7,77z M74.8,56.5l-12.7,9.6l0,0l-2.1-2.7L49.8,49.8l-0.2-0.2l-0.4-0.5v-7.9l8.8-6.7c6.1-4.6,14.8-3.4,19.4,2.7c1.8,2.4,2.8,5.3,2.8,8.3C80.3,49.9,78.3,53.9,74.8,56.5z"/></svg>