<svg xmlns="http://www.w3.org/2000/svg" enable-background="new 0 0 100 100" viewBox="0 0 100 100"><path d="M62.3,42c-3.1-3.1-8-3.1-11.1,0c-0.2,0.2-0.5,0.5-0.6,0.7c-0.2-0.3-0.4-0.5-0.6-0.7c-3.1-3.1-8-3.1-11.1,0c-3.1,3.1-3.1,8,0,11.1l9,9c1.5,1.5,4,1.5,5.5,0l9-9C65.3,50.1,65.3,45.1,62.3,42z M57.4,51.2h-2.9c-0.4,0-0.8-0.3-0.9-0.7l-0.4-1.1l-2.1,6.7c-0.1,0.4-0.5,0.7-1,0.7c0,0,0,0,0,0c-0.4,0-0.8-0.3-0.9-0.7L47,48.9L46.3,50c-0.2,0.3-0.5,0.5-0.8,0.5H43c-0.5,0-1-0.5-1-1s0.5-1,1-1h1.9l1.6-2.6c0.2-0.3,0.6-0.5,1-0.5c0.4,0,0.7,0.3,0.8,0.7l1.8,6.2l2.1-6.5c0.1-0.4,0.5-0.7,1-0.7c0,0,0,0,0,0c0.4,0,0.8,0.3,0.9,0.7l1.1,3.3h2.2c0.5,0,1,0.5,1,1S57.9,51.2,57.4,51.2z"/><path d="M82,50c0-2.2-1.7-4-3.8-4.3c-1.9-12.3-11.6-22-23.9-23.9C54,19.7,52.2,18,50,18c-2.2,0-4,1.7-4.3,3.8c-12.3,1.9-22,11.6-23.9,23.9C19.7,46,18,47.8,18,50c0,2.2,1.7,4,3.9,4.3c1.9,12.3,11.6,22,23.9,23.9C46,80.3,47.8,82,50,82c2.2,0,4-1.7,4.3-3.8c12.3-1.9,22-11.6,23.9-23.9C80.3,54,82,52.2,82,50z M76.1,45.7h-6.8c-1.7-7.5-7.5-13.3-15-15v-6.8C65.5,25.7,74.3,34.5,76.1,45.7z M53.9,67.4c-0.7-1.5-2.2-2.5-3.9-2.5c-1.7,0-3.2,1-3.9,2.5c-6.7-1.5-11.9-6.8-13.4-13.4c1.5-0.7,2.5-2.2,2.5-3.9c0-1.7-1-3.2-2.5-3.9c1.5-6.7,6.8-11.9,13.4-13.4c0.7,1.5,2.2,2.5,3.9,2.5c1.7,0,3.2-1,3.9-2.5c6.7,1.5,11.9,6.8,13.4,13.4c-1.5,0.7-2.5,2.2-2.5,3.9c0,1.7,1,3.2,2.5,3.9C65.8,60.6,60.6,65.8,53.9,67.4z M45.7,23.9v6.8c-7.4,1.7-13.3,7.5-15,15h-6.8C25.7,34.5,34.5,25.7,45.7,23.9z M23.9,54.3h6.8c1.7,7.4,7.5,13.3,15,15v6.8C34.5,74.3,25.7,65.5,23.9,54.3z M54.3,76.1v-6.8c7.5-1.7,13.3-7.5,15-15h6.8C74.3,65.5,65.5,74.3,54.3,76.1z"/></svg>