<svg xmlns="http://www.w3.org/2000/svg" enable-background="new 0 0 100 100" viewBox="0 0 100 100"><path d="M80.9,27.2c0.7-0.7,1-1.8,0.7-2.8c-0.3-1-1.2-1.7-2.2-1.9L76,22c-0.3,0-0.6-0.3-0.6-0.6l-0.5-3.3c-0.1-1-0.9-1.9-1.8-2.2c-1-0.3-2.1-0.1-2.8,0.7l-5.6,5.6c-0.2,0.2-0.4,0.5-0.5,0.8c-4.8-3.1-10.3-4.7-16.1-4.7c-16.4,0-29.8,13.4-29.8,29.8c0,7.9,3,15.3,8.6,20.9L24,73.8c-1.9,3.3-0.8,7.6,2.5,9.5c1.1,0.6,2.3,0.9,3.5,0.9c2.5,0,4.8-1.3,6-3.5l2.6-4.5c-0.1,0-0.2-0.1-0.3-0.1c3.1,1.1,6.4,1.6,9.7,1.6c3.3,0,6.4-0.5,9.5-1.5l2.6,4.5c1.3,2.1,3.6,3.5,6,3.5c1.2,0,2.4-0.3,3.5-0.9c0,0,0,0,0,0c3.3-1.9,4.4-6.2,2.5-9.5l-2.8-4.9c-0.1,0.1-0.1,0.1-0.2,0.2c5.7-5.6,8.8-13.1,8.8-21.1c0-5.1-1.3-10.1-3.8-14.5c0.5-0.1,0.9-0.4,1.3-0.7L80.9,27.2z M27.4,69.5c-0.2-0.2-0.4-0.3-0.5-0.5C27.1,69.1,27.2,69.3,27.4,69.5c0.3,0.3,0.6,0.6,0.9,0.8c0.1,0.1,0.2,0.2,0.3,0.3c-0.1-0.1-0.2-0.2-0.3-0.3C28,70.1,27.7,69.8,27.4,69.5z M29.7,71.5c0.1,0.1,0.2,0.2,0.3,0.2c0.1,0.1,0.2,0.2,0.3,0.3c-0.1-0.1-0.2-0.2-0.3-0.3C29.9,71.6,29.8,71.6,29.7,71.5z M31.5,72.8C31.5,72.8,31.5,72.8,31.5,72.8C31.5,72.8,31.5,72.8,31.5,72.8z M32.1,73.2c0.2,0.1,0.3,0.2,0.5,0.3c0.4,0.2,0.7,0.4,1.1,0.6c-0.4-0.2-0.7-0.4-1.1-0.6C32.5,73.4,32.3,73.3,32.1,73.2z M35.1,74.9c-0.3-0.2-0.7-0.3-1-0.5c0,0-0.1,0-0.1-0.1c0,0,0.1,0,0.1,0.1C34.5,74.5,34.8,74.7,35.1,74.9c0.7,0.3,1.4,0.6,2.1,0.9C36.5,75.5,35.8,75.2,35.1,74.9z M61,74.9c-0.2,0.1-0.4,0.2-0.6,0.3C60.6,75,60.8,75,61,74.9c0.3-0.1,0.6-0.3,0.9-0.4c0.3-0.2,0.6-0.3,0.9-0.5c-0.3,0.2-0.6,0.3-0.9,0.5C61.6,74.6,61.3,74.7,61,74.9z M66.4,71.5c-0.4,0.3-0.8,0.6-1.3,0.9c-0.3,0.2-0.7,0.5-1.1,0.7c-0.3,0.2-0.6,0.3-0.8,0.5c0.3-0.2,0.6-0.3,0.8-0.5c0.4-0.2,0.7-0.5,1.1-0.7C65.6,72.1,66,71.8,66.4,71.5c0.4-0.3,0.8-0.6,1.2-1v0C67.2,70.9,66.8,71.2,66.4,71.5z M67.3,68c-0.3,0.3-0.7,0.6-1,0.9c0,0-0.1,0-0.1,0.1c-0.3,0.3-0.7,0.6-1.1,0.9c-0.4,0.3-0.8,0.6-1.2,0.9c-0.3,0.2-0.6,0.4-1,0.7c-0.7,0.5-1.4,0.8-2.1,1.2c-0.3,0.1-0.5,0.3-0.8,0.4c-0.6,0.3-1.2,0.5-1.8,0.8c-3.3,1.3-6.7,2-10.3,2c-3.3,0-6.5-0.6-9.6-1.7c-0.9-0.3-1.7-0.7-2.5-1.1c-0.3-0.2-0.6-0.3-1-0.5c-0.1,0-0.2-0.1-0.3-0.1c-0.4-0.2-0.7-0.4-1.1-0.6c-0.3-0.2-0.6-0.4-1-0.6l-0.1-0.1c-0.1,0-0.1-0.1-0.2-0.1c-0.3-0.2-0.5-0.4-0.8-0.6c-0.1-0.1-0.2-0.1-0.3-0.2c0,0-0.1-0.1-0.1-0.1c-0.2-0.1-0.3-0.2-0.5-0.4c-0.2-0.2-0.5-0.4-0.7-0.6c-0.1-0.1-0.2-0.2-0.4-0.3c-0.3-0.2-0.6-0.5-0.9-0.8c-5.5-5.3-8.5-12.4-8.5-20c0-15.3,12.5-27.8,27.8-27.8c5.8,0,11.3,1.7,16,5l0.7,4.5l0.1,0.5c0,0,0,0,0,0c0,0.2,0.1,0.4,0.2,0.6l-2.5,2.3c-3.7-3.7-8.8-5.9-14.4-5.9c-11.4,0-20.6,9.3-20.6,20.6s9.3,20.6,20.6,20.6S68.7,59.4,68.7,48c0-5-1.8-9.7-4.8-13.2l2.5-2.3c0.2,0.1,0.5,0.2,0.7,0.2l0.1,0l4.5,0.7c2.7,4.4,4.2,9.4,4.2,14.7C75.8,55.7,72.8,62.8,67.3,68z M59.1,48c0,6.1-5,11-11.1,11c-6.1,0-11-5-11-11c0-6.1,5-11.1,11-11.1c2.8,0,5.4,1.1,7.4,2.8l-3.9,3.6c-1-0.7-2.1-1.1-3.4-1.1c-3.2,0-5.7,2.6-5.7,5.7s2.6,5.7,5.7,5.7c3.2,0,5.7-2.6,5.7-5.7c0-1.2-0.3-2.2-0.9-3.1l3.9-3.6C58.2,43.1,59.1,45.5,59.1,48z"/></svg>