<svg xmlns="http://www.w3.org/2000/svg" enable-background="new 0 0 100 100" viewBox="0 0 100 100"><path d="M66.7,51.8C66.7,51.8,66.7,51.8,66.7,51.8l0-8c0-4-3.3-7.3-7.3-7.3h-3v-3.9h0.8c1.2,0,2.1-1,2.1-2.1v-3.4c0-1.2-1-2.1-2.1-2.1h-4.2v-4.2c0-1.7-1.4-3.1-3.1-3.1c-1.7,0-3.1,1.4-3.1,3.1V25h-4.2c-1.2,0-2.1,1-2.1,2.1v3.4c0,1.2,1,2.1,2.1,2.1h0.8v3.9h-3c-4,0-7.3,3.3-7.3,7.3v8c0,0,0,0,0,0V75c0,1.3,0.3,2.4,0.9,3.5c1.2,2.3,3.6,3.8,6.4,3.8h18.9c0.3,0,0.5,0,0.7,0c0,0,0.1,0,0.1,0c2.1-0.3,4-1.4,5.2-3.2c0.8-1.2,1.2-2.6,1.2-4.1V51.8z M40.6,38.5h18.9c2.9,0,5.3,2.4,5.3,5.3v7.1c-0.8,0.2-1.3,0.7-1.7,1.1c-0.5,0.5-0.7,0.7-1.3,0.7c-0.5,0-0.8-0.2-1.3-0.7c-0.5-0.5-1.3-1.3-2.7-1.3c-1.4,0-2.1,0.7-2.7,1.3c-0.5,0.5-0.7,0.7-1.3,0.7c-0.5,0-0.8-0.2-1.3-0.7c-0.5-0.5-1.3-1.3-2.7-1.3c-1.4,0-2.1,0.7-2.7,1.3c-0.5,0.5-0.7,0.7-1.3,0.7s-0.8-0.2-1.3-0.7c-0.5-0.5-1.3-1.3-2.7-1.3c-1.4,0-2.1,0.7-2.7,1.3c-0.5,0.5-0.7,0.7-1.3,0.7s-0.8-0.2-1.3-0.7c-0.4-0.4-0.9-0.9-1.7-1.1v-7.1C35.3,40.9,37.6,38.5,40.6,38.5z M44.7,67.7c0-1.8,1.9-4.7,3.4-6.8c1-1.3,2.9-1.3,3.9,0c1.5,2.1,3.4,5,3.4,6.8c0,3-2.4,5.4-5.4,5.4S44.7,70.7,44.7,67.7z"/></svg>