<svg xmlns="http://www.w3.org/2000/svg" enable-background="new 0 0 100 100" viewBox="0 0 100 100"><path d="M68.6,50.6c0-2-1-3.8-2.6-4.8c1.6-1,2.6-2.8,2.6-4.9c0-2.6-1.8-4.9-4.2-5.6l-5.8-8c1-0.3,1.7-1.3,1.7-2.4v-4.3c0-1.4-1.1-2.6-2.6-2.6H42.2c-1.4,0-2.6,1.1-2.6,2.6v4.3c0,1.1,0.7,2.1,1.7,2.4l-5.9,8c-1,0.3-1.8,0.8-2.5,1.5c-1.1,1.1-1.7,2.6-1.7,4.1c0,2,1.1,3.8,2.6,4.9c-0.3,0.2-0.6,0.4-0.9,0.7c-1.1,1.1-1.7,2.6-1.7,4.1c0,2,1,3.8,2.6,4.8c-0.3,0.2-0.6,0.5-0.9,0.8c-1.1,1.1-1.7,2.5-1.7,4.1c0,1.9,0.9,3.6,2.3,4.6c-1.4,0.9-2.3,2.4-2.3,4.2v5c0,4.3,3.5,7.9,7.9,7.9h21.5c4.3,0,7.9-3.5,7.9-7.9v-5c0-1.8-0.9-3.3-2.3-4.2c1.4-1.1,2.3-2.7,2.3-4.6c0-2-1-3.8-2.6-4.8C67.6,54.4,68.6,52.6,68.6,50.6z M34.4,38.2c0.5-0.5,1.2-0.9,1.9-1c0.2-0.1,0.5-0.2,0.6-0.4l6.8-9.3h12.6l6.8,9.3c0.1,0.2,0.4,0.3,0.6,0.4c1.8,0.4,3,2,3,3.8c0,2.1-1.7,3.8-3.8,3.8H37.2c-2.1,0-3.8-1.7-3.8-3.8C33.3,39.9,33.7,39,34.4,38.2z M50,71.2c-3.5,0-6.3-2.8-6.3-6.3c0-2,2.2-5.5,4-7.9c1.1-1.5,3.4-1.5,4.5,0c1.8,2.5,4,5.9,4,7.9C56.3,68.4,53.4,71.2,50,71.2z"/></svg>