<svg xmlns="http://www.w3.org/2000/svg" enable-background="new 0 0 100 100" viewBox="0 0 100 100"><path d="M78,28c-2.5-2.7-6-4.3-9.7-4.3h-7.4c-1.9-3.9-5.8-6.5-10.4-6.5s-8.5,2.7-10.4,6.5h-8.4c-3.7,0-7.2,1.6-9.7,4.3c-2.5,2.7-3.7,6.4-3.3,10.1l3.5,33.1c0.7,6.7,6.3,11.7,13,11.7h29.7c6.7,0,12.3-5,13-11.7l3.5-33.1C81.7,34.4,80.5,30.7,78,28z M35.1,73.5c-1.9,0-3.5-1.4-3.7-3.3L28,37.1c-0.1-1.4,0.5-2.4,0.9-2.9c0.4-0.5,1.3-1.2,2.7-1.2h8c0,0.1,0.1,0.1,0.1,0.2c0,0.1,0,0.1,0.1,0.2c0.1,0.3,0.3,0.6,0.4,0.9c0,0,0,0.1,0,0.1c1.3,2.3,3.3,4.1,5.7,5.1c0,0,0,0,0,0c0.7,0.3,1.4,0.5,2.1,0.7c0.1,0,0.1,0,0.2,0c0.2,0,0.5,0.1,0.7,0.1v33.3H35.1z M51,40.3c0.2,0,0.4,0,0.6,0c0.1,0,0.1,0,0.2,0c0.3,0,0.6-0.1,0.9-0.1c0.1,0,0.1,0,0.2,0c3.3-0.7,6.1-2.8,7.8-5.8c0,0,0-0.1,0.1-0.1c0.1-0.3,0.3-0.5,0.4-0.8c0-0.1,0.1-0.1,0.1-0.2c0-0.1,0-0.1,0.1-0.2h7.1c1.4,0,2.3,0.8,2.8,1.2c0.4,0.5,1.1,1.4,0.9,2.9c0,0,0,0,0,0l-3.5,33.1c-0.2,1.9-1.8,3.3-3.7,3.3H51V40.3z M50.5,19.1c5.3,0,9.6,4.3,9.6,9.6c0,0.3,0,0.6,0,0.9c0,0,0,0.1,0,0.1c0,0.3-0.1,0.5-0.1,0.8c0,0.1,0,0.1,0,0.2c-0.1,0.2-0.1,0.5-0.2,0.7c0,0,0,0.1,0,0.1c-0.2,0.6-0.4,1.1-0.7,1.7c0,0,0,0,0,0.1c-0.1,0.3-0.3,0.5-0.4,0.7c0,0,0,0,0,0c-1.2,1.8-3,3.1-5.1,3.8l0,0c-0.3,0.1-0.6,0.2-0.8,0.2c-0.1,0-0.1,0-0.2,0c-0.3,0-0.5,0.1-0.8,0.1c-0.1,0-0.1,0-0.2,0c-0.3,0-0.6,0-0.9,0c-0.3,0-0.6,0-0.9,0c-0.1,0-0.1,0-0.2,0c-0.2,0-0.5-0.1-0.7-0.1c-0.1,0-0.1,0-0.2,0c-0.3-0.1-0.5-0.1-0.8-0.2c0,0,0,0-0.1,0c-2.4-0.7-4.4-2.4-5.6-4.6c0,0,0,0,0,0c-0.3-0.5-0.5-1.1-0.7-1.7c0,0,0-0.1,0-0.1c-0.1-0.3-0.1-0.5-0.2-0.8c0-0.1,0-0.1,0-0.2c-0.1-0.3-0.1-0.5-0.1-0.8c0,0,0-0.1,0-0.1c0-0.3,0-0.6,0-0.9c0-0.7,0.1-1.3,0.2-1.9c0,0,0,0,0,0c0.1-0.3,0.1-0.6,0.2-0.9c0.1-0.3,0.2-0.6,0.3-0.9c0,0,0,0,0,0C43.1,21.6,46.5,19.1,50.5,19.1z"/><path d="M50,32.3c1.5,0,2.7-1.2,2.7-2.7c0-1.1-0.7-2.1-1.7-2.5v-3.6c0-0.6-0.4-1-1-1s-1,0.4-1,1v3.6c-1,0.4-1.7,1.4-1.7,2.5C47.3,31.1,48.5,32.3,50,32.3z"/></svg>