<svg xmlns="http://www.w3.org/2000/svg" enable-background="new 0 0 100 100" viewBox="0 0 100 100"><path d="M78.5,67.7V54.9c0-9.7-7.9-17.5-17.5-17.5h-5.3v-5.7h9.4c2.4,0,4.6-1.2,6-3.2l2.2-3.5c0.5-0.7,0.5-1.6,0.1-2.4c-0.4-0.8-1.2-1.2-2-1.2H28.6c-0.9,0-1.6,0.5-2,1.2c-0.4,0.8-0.4,1.7,0.1,2.4l2.2,3.5c1.3,2,3.5,3.2,6,3.2h9.4v5.7h-7.3c-8.6,0-15.5,7-15.5,15.5v14.8c-2.5,0.5-4.5,2.7-4.5,5.4c0,3,2.5,5.5,5.5,5.5h54.8c3,0,5.5-2.5,5.5-5.5C82.9,70.5,81,68.2,78.5,67.7z M37.1,39.4h8.2c0,0,0,0,0,0h9.4c0,0,0,0,0,0h6.2c8.6,0,15.5,7,15.5,15.5v12.7H23.5V52.9C23.5,45.4,29.6,39.4,37.1,39.4z"/><path d="M50,64.8c6,0,10.9-4.9,10.9-10.9c0-6-4.9-10.9-10.9-10.9c-6,0-10.9,4.9-10.9,10.9C39.1,59.9,44,64.8,50,64.8z M50,44.9c4.9,0,8.9,4,8.9,8.9c0,4.9-4,8.9-8.9,8.9c-4.9,0-8.9-4-8.9-8.9C41.1,49,45.1,44.9,50,44.9z"/><path d="M50,56.2c1.3,0,2.3-1.1,2.3-2.3c0-0.9-0.6-1.7-1.3-2.1v-3.3c0-0.6-0.4-1-1-1s-1,0.4-1,1v3.3c-0.8,0.4-1.3,1.2-1.3,2.1C47.7,55.2,48.7,56.2,50,56.2z"/></svg>