<svg xmlns="http://www.w3.org/2000/svg" enable-background="new 0 0 100 100" viewBox="0 0 100 100"><path d="M82.4,35.8c0-3.4-2.8-6.2-6.2-6.2h0c0,0,0,0,0,0h-2.5c0,0,0,0,0,0H57.1c-1.2,0-2.2,0.7-2.6,1.8c-0.5,1.4-1.8,2.3-3.3,2.3c-0.9,0-1.8-0.4-2.5-1c-0.3-0.3-0.6-0.8-0.8-1.2c-0.4-1.1-1.4-1.9-2.6-1.9h-3.8c-5.3,0-10.3,2.1-14.1,5.7l-1.8-1.3c-0.9-0.7-1.9-1-3-1c-1.6,0-3.1,0.7-4.1,2c-1.7,2.2-1.2,5.4,1.1,7.1l2.5,1.8c-0.9,2.7-1.2,5.6-0.8,8.6c1.1,9.4,8.7,17,18.2,18c0.7,0.1,1.4,0.1,2.1,0.1c9.1,0,17.3-6.1,19.7-15l12.5-2.3c0,0,0,0,0,0l3.5-0.6c1.4-0.3,2.7-1,3.6-2c1-1.1,1.6-2.5,1.6-4.1V35.8z M22.8,41.9l-2-1.5c-1.3-1-1.6-2.9-0.6-4.3c0.6-0.8,1.5-1.2,2.5-1.2c0.7,0,1.3,0.2,1.8,0.6l1.6,1.2c0,0,0,0,0,0c-0.3,0.3-0.6,0.7-0.8,1c-0.1,0.1-0.1,0.2-0.2,0.2c-0.3,0.3-0.5,0.7-0.7,1.1c-0.1,0.2-0.2,0.3-0.3,0.5c-0.1,0.2-0.2,0.4-0.3,0.6c-0.1,0.2-0.2,0.4-0.3,0.6c-0.1,0.2-0.2,0.4-0.3,0.5C23,41.5,22.9,41.7,22.8,41.9z M60.3,53.6c-0.4,0.1-0.7,0.4-0.8,0.8c-2.1,8.9-10.7,15-19.9,14c-8.5-0.9-15.4-7.7-16.4-16.2c-0.3-3,0-5.9,1-8.5c0.2-0.5,0.4-1,0.6-1.5c0.1-0.2,0.2-0.3,0.2-0.5c0.2-0.4,0.4-0.8,0.6-1.2c0.1-0.2,0.3-0.4,0.4-0.6c0.2-0.3,0.4-0.6,0.7-1c0.2-0.2,0.3-0.4,0.5-0.6c0.3-0.3,0.5-0.6,0.8-0.9c3.5-3.7,8.4-5.9,13.5-5.9h3.8c0.4,0,0.6,0.3,0.7,0.6c0.3,0.7,0.7,1.4,1.3,1.9c1,1,2.4,1.6,3.9,1.6c2.3,0,4.4-1.5,5.2-3.7c0.1-0.2,0.4-0.4,0.7-0.4h15.6v19.7L60.3,53.6z"/><path d="M41.6,37.4C34.6,37.4,29,43,29,50c0,7,5.7,12.6,12.6,12.6c7,0,12.6-5.7,12.6-12.6C54.2,43,48.6,37.4,41.6,37.4z"/></svg>