<svg xmlns="http://www.w3.org/2000/svg" enable-background="new 0 0 100 100" viewBox="0 0 100 100"><path d="M78.2,61.7c-1.1-1.1-2.6-1.7-4.2-1.7s-3.1,0.6-4.2,1.7c-0.1,0.1-0.1,0.1-0.2,0.2L63.8,56c1.6-4.1,0.7-9-2.6-12.3L58.4,41c-0.8-0.9-1.3-2-1.3-3.1c0.1-3.3-0.7-6.5-2.3-9.3c-0.2-0.3-0.4-0.4-0.7-0.5c-0.3-0.1-0.6,0-0.8,0.2c-2.4,1.9-5.8,1.7-7.9-0.4c-1-1-1.6-2.4-1.7-3.8c0-0.4-0.2-0.7-0.6-0.8c-0.3-0.2-0.7-0.1-1,0.1c-3.4,2.3-8,1.9-10.9-1c-0.2-0.2-0.4-0.4-0.6-0.7c-0.3-0.4-0.8-0.5-1.3-0.2c-1.1,0.6-2.2,1.4-3.1,2.2c-3.9,3.5-6.1,8.2-6.2,13.3c-0.2,5.2,1.8,10,5.4,13.6c3.6,3.6,8.5,5.5,13.6,5.4c1.2,0,2.3,0.4,3.1,1.3l2.8,2.8c2.2,2.2,5.1,3.4,8.2,3.4c1.4,0,2.8-0.3,4.1-0.8l5.9,5.9c-0.1,0.1-0.1,0.1-0.2,0.2c-1.1,1.1-1.7,2.6-1.7,4.2c0,1.6,0.6,3.1,1.7,4.2c1.2,1.2,2.7,1.7,4.2,1.7s3-0.6,4.2-1.7c1.4-1.4,2-3.5,1.6-5.4c1.9,0.4,3.9-0.2,5.4-1.6c1.1-1.1,1.7-2.6,1.7-4.2S79.4,62.8,78.2,61.7z M76.8,68.7c-1.4,1.4-3.6,1.5-5.2,0.3c-0.4-0.3-1-0.2-1.4,0.2c-0.4,0.4-0.4,0.9-0.1,1.3c1.2,1.6,1.1,3.8-0.3,5.2c-1.5,1.5-4,1.5-5.6,0c-1.5-1.5-1.5-4,0-5.6c0.3-0.3,0.5-0.5,0.8-0.6c0.3-0.2,0.5-0.4,0.5-0.7c0-0.3-0.1-0.6-0.3-0.8l-6.2-6.2c0,0,0.1-0.1,0.1-0.1c0.3-0.2,0.5-0.4,0.8-0.5c0.1-0.1,0.2-0.1,0.2-0.2c0.3-0.3,0.7-0.5,1-0.8c0.3-0.3,0.6-0.6,0.9-1c0.1-0.1,0.1-0.2,0.2-0.2c0.2-0.3,0.4-0.5,0.6-0.8c0,0,0.1-0.1,0.1-0.1l6.2,6.2c0.2,0.2,0.5,0.3,0.9,0.3c0.3,0,0.6-0.2,0.7-0.5c0.1-0.3,0.3-0.5,0.6-0.8c1.5-1.5,4-1.5,5.6,0c0.7,0.7,1.2,1.7,1.2,2.8C78,66.9,77.6,67.9,76.8,68.7z"/></svg>