<svg xmlns="http://www.w3.org/2000/svg" enable-background="new 0 0 100 100" viewBox="0 0 100 100"><path d="M72.3 49.8c-.2-.4-.4-.8-.6-1.3 0-.1-.1-.1-.1-.2-.2-.4-.4-.8-.6-1.1 0 0-.1-.1-.1-.1-.2-.4-.5-.8-.8-1.2 0 0 0 0 0 0-.3-.4-.6-.8-.9-1.2-5.8-7.2-4.5-16.8-3.2-21.9.3-1.1 0-2.3-.7-3.2-.7-.9-1.8-1.5-3-1.5H36.5c-1.2 0-2.3.5-3 1.5-.7.9-1 2.1-.7 3.2 1.3 5.1 2.6 14.6-3.2 21.9-.3.4-.6.8-.9 1.2 0 .1-.1.1-.1.2-.2.3-.4.7-.6 1-.1.1-.1.2-.2.4-.2.3-.3.6-.5.8-.1.1-.2.3-.2.4-.1.3-.3.6-.4.8-.1.1-.1.3-.2.4-.2.4-.3.8-.5 1.2-.1.2-.1.4-.2.5-.1.3-.2.5-.2.8-.1.2-.1.4-.2.6-.1.2-.1.5-.2.7 0 .2-.1.4-.1.6-.1.3-.1.6-.2.9 0 .1-.1.3-.1.4 0 0 0 0 0 0-1.3 8.7 1.9 18.1 7 24.5.7.9 1.8 1.4 3 1.4h29.2c1.1 0 2.2-.5 2.9-1.3C73.4 72.6 76.8 60 72.3 49.8 72.3 49.8 72.3 49.8 72.3 49.8zM34.8 22.4c-.1-.5 0-1.1.3-1.5.3-.4.8-.7 1.4-.7h25.9c.6 0 1.1.2 1.4.7.3.4.4 1 .3 1.5-1.3 5.2-2.6 14.9 2.9 22.7-4.9 3.2-11.1 5-17.6 5-6.5 0-12.7-1.8-17.6-5.1C37.4 37.3 36.1 27.6 34.8 22.4zM65.4 79.2c-.3.4-.8.6-1.3.6H34.9c-.5 0-1-.3-1.4-.7-4.7-5.8-7.7-14.3-6.7-22.2 1-.2 2-.3 3-.3 10.5 0 19.1 8.6 19.1 19.1 0 .5.5 1 1 1 .6 0 1-.5 1-1 0-10.5 8.6-19.1 19.1-19.1.7 0 1.5.1 2.2.1C73.2 64.8 70.2 73.3 65.4 79.2zM82 29.9h-7.2l2.3-2.3c.4-.4.4-1 0-1.4s-1-.4-1.4 0l-4 4c-.1.1-.2.2-.2.3-.1.2-.1.5 0 .8.1.1.1.2.2.3l4 4c.2.2.5.3.7.3s.5-.1.7-.3c.4-.4.4-1 0-1.4l-2.3-2.3H82c.6 0 1-.4 1-1S82.6 29.9 82 29.9zM28.5 31.2c.1-.2.1-.5 0-.8-.1-.1-.1-.2-.2-.3l-4-4c-.4-.4-1-.4-1.4 0s-.4 1 0 1.4l2.3 2.3H18c-.6 0-1 .4-1 1s.4 1 1 1h7.2l-2.3 2.3c-.4.4-.4 1 0 1.4.2.2.5.3.7.3s.5-.1.7-.3l4-4C28.4 31.5 28.5 31.4 28.5 31.2z"/><path d="M49.5,45.3c1.6,0,3-1.3,3-3c0-1.6-1.3-3-3-3c-1.6,0-3,1.3-3,3C46.5,44,47.8,45.3,49.5,45.3z"/></svg>