<svg xmlns="http://www.w3.org/2000/svg" enable-background="new 0 0 100 100" viewBox="0 0 100 100"><path d="M83,59c0-5.2-2.3-10.1-6.4-13.4c-2.8-2.2-6.1-3.5-9.6-3.7l2.6-8.5c0.6-1.8,0.3-3.8-0.8-5.3l-3.3-4.8l1.2-0.5c0.5-0.2,0.7-0.7,0.6-1.2l-1-3.9c-0.1-0.5-0.7-0.9-1.2-0.7c-0.5,0.1-0.9,0.7-0.7,1.2l0.8,3L60.7,23c-0.5,0.2-0.8,0.8-0.5,1.3c0.2,0.4,0.5,0.6,0.9,0.6c0.1,0,0.3,0,0.4-0.1l2.1-0.9l3.5,5.1c0.7,1.1,0.9,2.4,0.6,3.6l-2.8,9.1c-0.9,0.1-1.9,0.1-2.8,0.4l-34.2,7.5v-6.1c1.3-0.4,2.3-1.7,2.3-3.1v-5.4c0-1.8-1.5-3.3-3.3-3.3c-1.8,0-3.3,1.5-3.3,3.3v5.4c0,1.5,1,2.7,2.3,3.1v6.6c-5.2,1.9-8.9,6.9-8.9,12.6c0,7.4,6,13.4,13.4,13.4h0.7c-0.5,0.7-0.7,1.5-0.7,2.4c0,2.4,2,4.4,4.4,4.4h30.4c2.4,0,4.4-2,4.4-4.4c0-1-0.4-1.9-0.9-2.7C76.8,74.6,83,67.6,83,59z M65.8,74.3h-0.6c0,0,0,0,0,0H34.8c0,0,0,0,0,0h-4.4c-6.3,0-11.4-5.1-11.4-11.4c0-5.3,3.8-10,9-11.1l34.5-7.6c1.1-0.2,2.2-0.4,3.3-0.4c3.4,0,6.8,1.2,9.5,3.4C78.9,50.1,81,54.4,81,59C81,67.4,74.2,74.3,65.8,74.3z"/><path d="M66,48.9c-5.1,0-9.3,4.2-9.3,9.3c0,4.8,3.6,8.7,8.3,9.2v2.2h-2.4c-0.6,0-1,0.4-1,1s0.4,1,1,1h6.9c0.6,0,1-0.4,1-1s-0.4-1-1-1H67v-2.2c4.6-0.5,8.3-4.4,8.3-9.2C75.3,53.1,71.1,48.9,66,48.9z"/></svg>